STARTFONT 2.1
COMMENT
COMMENT Converted from OpenType font "verdana.ttf" by "otf2bdf 3.0".
COMMENT
FONT -FreeType-Verdana-Medium-R-Normal--11-80-100-100-P-61-ISO10646-1
SIZE 8 100 100
FONTBOUNDINGBOX 23 15 -6 -3
STARTPROPERTIES 19
FOUNDRY "FreeType"
FAMILY_NAME "Verdana"
WEIGHT_NAME "Medium"
SLANT "R"
SETWIDTH_NAME "Normal"
ADD_STYLE_NAME ""
PIXEL_SIZE 11
POINT_SIZE 80
RESOLUTION_X 100
RESOLUTION_Y 100
SPACING "P"
AVERAGE_WIDTH 61
CHARSET_REGISTRY "ISO10646"
CHARSET_ENCODING "1"
FONT_ASCENT 11
FONT_DESCENT 2
COPYRIGHT "© 2016 Microsoft Corporation. All Rights Reserved."
_OTF_FONTFILE "verdana.ttf"
_OTF_PSNAME "Verdana"
ENDPROPERTIES
CHARS 900
STARTCHAR 0020
ENCODING 32
SWIDTH 360 0
DWIDTH 4 0
BBX 0 0 0 0
BITMAP
ENDCHAR
STARTCHAR 0021
ENCODING 33
SWIDTH 360 0
DWIDTH 4 0
BBX 1 8 2 0
BITMAP
80
80
80
80
80
80
00
80
ENDCHAR
STARTCHAR 0022
ENCODING 34
SWIDTH 450 0
DWIDTH 5 0
BBX 3 3 1 6
BITMAP
A0
A0
A0
ENDCHAR
STARTCHAR 0023
ENCODING 35
SWIDTH 810 0
DWIDTH 9 0
BBX 7 8 1 0
BITMAP
14
24
7E
28
28
FC
50
50
ENDCHAR
STARTCHAR 0024
ENCODING 36
SWIDTH 630 0
DWIDTH 7 0
BBX 5 11 1 -2
BITMAP
20
20
78
A0
A0
70
28
A8
F0
20
20
ENDCHAR
STARTCHAR 0025
ENCODING 37
SWIDTH 1080 0
DWIDTH 12 0
BBX 10 8 1 0
BITMAP
E200
9200
9400
E400
09C0
0A40
1240
11C0
ENDCHAR
STARTCHAR 0026
ENCODING 38
SWIDTH 720 0
DWIDTH 8 0
BBX 7 8 1 0
BITMAP
70
90
90
64
94
8C
8C
72
ENDCHAR
STARTCHAR 0027
ENCODING 39
SWIDTH 270 0
DWIDTH 3 0
BBX 1 3 1 6
BITMAP
80
80
80
ENDCHAR
STARTCHAR 0028
ENCODING 40
SWIDTH 450 0
DWIDTH 5 0
BBX 3 11 1 -2
BITMAP
20
40
C0
80
80
80
80
80
C0
40
20
ENDCHAR
STARTCHAR 0029
ENCODING 41
SWIDTH 450 0
DWIDTH 5 0
BBX 3 11 1 -2
BITMAP
80
40
60
20
20
20
20
20
60
40
80
ENDCHAR
STARTCHAR 002A
ENCODING 42
SWIDTH 630 0
DWIDTH 7 0
BBX 5 5 1 4
BITMAP
20
F8
20
F8
20
ENDCHAR
STARTCHAR 002B
ENCODING 43
SWIDTH 810 0
DWIDTH 9 0
BBX 7 7 1 0
BITMAP
10
10
10
FE
10
10
10
ENDCHAR
STARTCHAR 002C
ENCODING 44
SWIDTH 360 0
DWIDTH 4 0
BBX 2 4 1 -2
BITMAP
40
C0
80
80
ENDCHAR
STARTCHAR 002D
ENCODING 45
SWIDTH 450 0
DWIDTH 5 0
BBX 3 1 1 3
BITMAP
E0
ENDCHAR
STARTCHAR 002E
ENCODING 46
SWIDTH 360 0
DWIDTH 4 0
BBX 2 2 1 0
BITMAP
C0
C0
ENDCHAR
STARTCHAR 002F
ENCODING 47
SWIDTH 450 0
DWIDTH 5 0
BBX 4 10 0 -1
BITMAP
10
10
10
20
20
20
40
40
80
80
ENDCHAR
STARTCHAR 0030
ENCODING 48
SWIDTH 630 0
DWIDTH 7 0
BBX 5 8 1 0
BITMAP
70
88
88
88
88
88
88
70
ENDCHAR
STARTCHAR 0031
ENCODING 49
SWIDTH 630 0
DWIDTH 7 0
BBX 5 8 1 0
BITMAP
20
E0
20
20
20
20
20
F8
ENDCHAR
STARTCHAR 0032
ENCODING 50
SWIDTH 630 0
DWIDTH 7 0
BBX 5 8 1 0
BITMAP
F0
88
08
18
10
60
C0
F8
ENDCHAR
STARTCHAR 0033
ENCODING 51
SWIDTH 630 0
DWIDTH 7 0
BBX 5 8 1 0
BITMAP
F0
88
08
30
08
08
88
F0
ENDCHAR
STARTCHAR 0034
ENCODING 52
SWIDTH 630 0
DWIDTH 7 0
BBX 6 8 0 0
BITMAP
08
18
28
48
48
FC
08
08
ENDCHAR
STARTCHAR 0035
ENCODING 53
SWIDTH 630 0
DWIDTH 7 0
BBX 5 8 1 0
BITMAP
F8
80
80
F0
08
08
88
F0
ENDCHAR
STARTCHAR 0036
ENCODING 54
SWIDTH 630 0
DWIDTH 7 0
BBX 5 8 1 0
BITMAP
38
C0
80
F8
88
88
88
70
ENDCHAR
STARTCHAR 0037
ENCODING 55
SWIDTH 630 0
DWIDTH 7 0
BBX 5 8 1 0
BITMAP
F8
08
08
10
20
20
40
40
ENDCHAR
STARTCHAR 0038
ENCODING 56
SWIDTH 630 0
DWIDTH 7 0
BBX 5 8 1 0
BITMAP
70
88
88
70
98
88
88
70
ENDCHAR
STARTCHAR 0039
ENCODING 57
SWIDTH 630 0
DWIDTH 7 0
BBX 5 8 1 0
BITMAP
70
88
88
88
F8
08
18
E0
ENDCHAR
STARTCHAR 003A
ENCODING 58
SWIDTH 450 0
DWIDTH 5 0
BBX 1 6 2 0
BITMAP
80
80
00
00
80
80
ENDCHAR
STARTCHAR 003B
ENCODING 59
SWIDTH 450 0
DWIDTH 5 0
BBX 2 8 1 -2
BITMAP
40
40
00
00
40
40
40
80
ENDCHAR
STARTCHAR 003C
ENCODING 60
SWIDTH 810 0
DWIDTH 9 0
BBX 6 5 1 1
BITMAP
0C
30
C0
30
0C
ENDCHAR
STARTCHAR 003D
ENCODING 61
SWIDTH 810 0
DWIDTH 9 0
BBX 7 3 1 2
BITMAP
FE
00
FE
ENDCHAR
STARTCHAR 003E
ENCODING 62
SWIDTH 810 0
DWIDTH 9 0
BBX 6 5 2 1
BITMAP
C0
30
0C
30
C0
ENDCHAR
STARTCHAR 003F
ENCODING 63
SWIDTH 540 0
DWIDTH 6 0
BBX 4 8 1 0
BITMAP
F0
90
10
10
60
40
00
40
ENDCHAR
STARTCHAR 0040
ENCODING 64
SWIDTH 990 0
DWIDTH 11 0
BBX 9 9 1 -1
BITMAP
3E00
6100
9E80
A280
A280
A280
9F80
4000
3C00
ENDCHAR
STARTCHAR 0041
ENCODING 65
SWIDTH 720 0
DWIDTH 8 0
BBX 7 8 0 0
BITMAP
18
18
28
24
64
7C
42
82
ENDCHAR
STARTCHAR 0042
ENCODING 66
SWIDTH 720 0
DWIDTH 8 0
BBX 6 8 1 0
BITMAP
F8
88
88
F8
84
84
84
F8
ENDCHAR
STARTCHAR 0043
ENCODING 67
SWIDTH 720 0
DWIDTH 8 0
BBX 6 8 1 0
BITMAP
7C
C4
80
80
80
80
C4
7C
ENDCHAR
STARTCHAR 0044
ENCODING 68
SWIDTH 720 0
DWIDTH 8 0
BBX 7 8 1 0
BITMAP
F8
8C
86
82
82
86
84
F8
ENDCHAR
STARTCHAR 0045
ENCODING 69
SWIDTH 630 0
DWIDTH 7 0
BBX 5 8 1 0
BITMAP
F8
80
80
F8
80
80
80
F8
ENDCHAR
STARTCHAR 0046
ENCODING 70
SWIDTH 540 0
DWIDTH 6 0
BBX 5 8 1 0
BITMAP
F8
80
80
F8
80
80
80
80
ENDCHAR
STARTCHAR 0047
ENCODING 71
SWIDTH 810 0
DWIDTH 9 0
BBX 7 8 1 0
BITMAP
3C
C2
80
80
8E
82
C2
3C
ENDCHAR
STARTCHAR 0048
ENCODING 72
SWIDTH 720 0
DWIDTH 8 0
BBX 6 8 1 0
BITMAP
84
84
84
FC
84
84
84
84
ENDCHAR
STARTCHAR 0049
ENCODING 73
SWIDTH 450 0
DWIDTH 5 0
BBX 3 8 1 0
BITMAP
E0
40
40
40
40
40
40
E0
ENDCHAR
STARTCHAR 004A
ENCODING 74
SWIDTH 450 0
DWIDTH 5 0
BBX 4 8 0 0
BITMAP
70
10
10
10
10
10
10
E0
ENDCHAR
STARTCHAR 004B
ENCODING 75
SWIDTH 720 0
DWIDTH 8 0
BBX 6 8 1 0
BITMAP
84
88
90
A0
E0
90
88
84
ENDCHAR
STARTCHAR 004C
ENCODING 76
SWIDTH 540 0
DWIDTH 6 0
BBX 5 8 1 0
BITMAP
80
80
80
80
80
80
80
F8
ENDCHAR
STARTCHAR 004D
ENCODING 77
SWIDTH 810 0
DWIDTH 9 0
BBX 7 8 1 0
BITMAP
C6
C6
A6
AA
9A
92
82
82
ENDCHAR
STARTCHAR 004E
ENCODING 78
SWIDTH 720 0
DWIDTH 8 0
BBX 6 8 1 0
BITMAP
C4
E4
A4
B4
94
8C
8C
84
ENDCHAR
STARTCHAR 004F
ENCODING 79
SWIDTH 810 0
DWIDTH 9 0
BBX 7 8 1 0
BITMAP
78
C4
82
82
82
82
C4
78
ENDCHAR
STARTCHAR 0050
ENCODING 80
SWIDTH 630 0
DWIDTH 7 0
BBX 5 8 1 0
BITMAP
F0
88
88
88
F0
80
80
80
ENDCHAR
STARTCHAR 0051
ENCODING 81
SWIDTH 810 0
DWIDTH 9 0
BBX 7 10 1 -2
BITMAP
78
C4
82
82
82
82
C4
78
08
0E
ENDCHAR
STARTCHAR 0052
ENCODING 82
SWIDTH 720 0
DWIDTH 8 0
BBX 6 8 1 0
BITMAP
F0
88
88
88
F0
90
88
84
ENDCHAR
STARTCHAR 0053
ENCODING 83
SWIDTH 720 0
DWIDTH 8 0
BBX 6 8 1 0
BITMAP
78
84
80
E0
1C
04
8C
F8
ENDCHAR
STARTCHAR 0054
ENCODING 84
SWIDTH 630 0
DWIDTH 7 0
BBX 7 8 0 0
BITMAP
FE
10
10
10
10
10
10
10
ENDCHAR
STARTCHAR 0055
ENCODING 85
SWIDTH 720 0
DWIDTH 8 0
BBX 6 8 1 0
BITMAP
84
84
84
84
84
84
CC
78
ENDCHAR
STARTCHAR 0056
ENCODING 86
SWIDTH 720 0
DWIDTH 8 0
BBX 7 8 0 0
BITMAP
82
42
44
64
24
28
18
18
ENDCHAR
STARTCHAR 0057
ENCODING 87
SWIDTH 990 0
DWIDTH 11 0
BBX 9 8 1 0
BITMAP
8880
8880
9480
9500
5500
6500
6300
6200
ENDCHAR
STARTCHAR 0058
ENCODING 88
SWIDTH 720 0
DWIDTH 8 0
BBX 6 8 1 0
BITMAP
84
C8
50
30
30
50
C8
84
ENDCHAR
STARTCHAR 0059
ENCODING 89
SWIDTH 630 0
DWIDTH 7 0
BBX 6 8 0 0
BITMAP
C4
44
28
38
10
10
10
10
ENDCHAR
STARTCHAR 005A
ENCODING 90
SWIDTH 720 0
DWIDTH 8 0
BBX 6 8 1 0
BITMAP
FC
08
18
10
20
40
80
FC
ENDCHAR
STARTCHAR 005B
ENCODING 91
SWIDTH 450 0
DWIDTH 5 0
BBX 3 11 1 -2
BITMAP
E0
80
80
80
80
80
80
80
80
80
E0
ENDCHAR
STARTCHAR 005C
ENCODING 92
SWIDTH 450 0
DWIDTH 5 0
BBX 4 10 1 -1
BITMAP
80
80
80
40
40
40
20
20
10
10
ENDCHAR
STARTCHAR 005D
ENCODING 93
SWIDTH 450 0
DWIDTH 5 0
BBX 3 11 1 -2
BITMAP
E0
20
20
20
20
20
20
20
20
20
E0
ENDCHAR
STARTCHAR 005E
ENCODING 94
SWIDTH 810 0
DWIDTH 9 0
BBX 7 4 1 4
BITMAP
10
28
44
82
ENDCHAR
STARTCHAR 005F
ENCODING 95
SWIDTH 630 0
DWIDTH 7 0
BBX 7 1 0 -2
BITMAP
FE
ENDCHAR
STARTCHAR 0060
ENCODING 96
SWIDTH 630 0
DWIDTH 7 0
BBX 2 2 2 7
BITMAP
80
40
ENDCHAR
STARTCHAR 0061
ENCODING 97
SWIDTH 630 0
DWIDTH 7 0
BBX 5 6 1 0
BITMAP
F0
08
78
88
98
E8
ENDCHAR
STARTCHAR 0062
ENCODING 98
SWIDTH 630 0
DWIDTH 7 0
BBX 5 9 1 0
BITMAP
80
80
80
F0
88
88
88
88
F0
ENDCHAR
STARTCHAR 0063
ENCODING 99
SWIDTH 540 0
DWIDTH 6 0
BBX 4 6 1 0
BITMAP
70
90
80
80
90
70
ENDCHAR
STARTCHAR 0064
ENCODING 100
SWIDTH 630 0
DWIDTH 7 0
BBX 5 9 1 0
BITMAP
08
08
08
78
88
88
88
88
F8
ENDCHAR
STARTCHAR 0065
ENCODING 101
SWIDTH 630 0
DWIDTH 7 0
BBX 5 6 1 0
BITMAP
70
88
F8
80
88
78
ENDCHAR
STARTCHAR 0066
ENCODING 102
SWIDTH 360 0
DWIDTH 4 0
BBX 4 9 0 0
BITMAP
30
40
40
F0
40
40
40
40
40
ENDCHAR
STARTCHAR 0067
ENCODING 103
SWIDTH 630 0
DWIDTH 7 0
BBX 5 8 1 -2
BITMAP
78
88
88
88
88
F8
08
F0
ENDCHAR
STARTCHAR 0068
ENCODING 104
SWIDTH 630 0
DWIDTH 7 0
BBX 5 9 1 0
BITMAP
80
80
80
F0
88
88
88
88
88
ENDCHAR
STARTCHAR 0069
ENCODING 105
SWIDTH 270 0
DWIDTH 3 0
BBX 1 9 1 0
BITMAP
80
00
00
80
80
80
80
80
80
ENDCHAR
STARTCHAR 006A
ENCODING 106
SWIDTH 360 0
DWIDTH 4 0
BBX 3 11 0 -2
BITMAP
20
00
00
60
20
20
20
20
20
20
C0
ENDCHAR
STARTCHAR 006B
ENCODING 107
SWIDTH 630 0
DWIDTH 7 0
BBX 5 9 1 0
BITMAP
80
80
80
98
90
A0
E0
90
88
ENDCHAR
STARTCHAR 006C
ENCODING 108
SWIDTH 270 0
DWIDTH 3 0
BBX 1 9 1 0
BITMAP
80
80
80
80
80
80
80
80
80
ENDCHAR
STARTCHAR 006D
ENCODING 109
SWIDTH 990 0
DWIDTH 11 0
BBX 9 6 1 0
BITMAP
F700
8880
8880
8880
8880
8880
ENDCHAR
STARTCHAR 006E
ENCODING 110
SWIDTH 630 0
DWIDTH 7 0
BBX 5 6 1 0
BITMAP
F0
88
88
88
88
88
ENDCHAR
STARTCHAR 006F
ENCODING 111
SWIDTH 630 0
DWIDTH 7 0
BBX 5 6 1 0
BITMAP
70
88
88
88
88
70
ENDCHAR
STARTCHAR 0070
ENCODING 112
SWIDTH 630 0
DWIDTH 7 0
BBX 5 8 1 -2
BITMAP
F0
88
88
88
88
F0
80
80
ENDCHAR
STARTCHAR 0071
ENCODING 113
SWIDTH 630 0
DWIDTH 7 0
BBX 5 8 1 -2
BITMAP
78
88
88
88
88
F8
08
08
ENDCHAR
STARTCHAR 0072
ENCODING 114
SWIDTH 450 0
DWIDTH 5 0
BBX 4 6 1 0
BITMAP
F0
80
80
80
80
80
ENDCHAR
STARTCHAR 0073
ENCODING 115
SWIDTH 540 0
DWIDTH 6 0
BBX 4 6 1 0
BITMAP
F0
90
C0
30
90
F0
ENDCHAR
STARTCHAR 0074
ENCODING 116
SWIDTH 360 0
DWIDTH 4 0
BBX 4 8 0 0
BITMAP
40
40
F0
40
40
40
40
70
ENDCHAR
STARTCHAR 0075
ENCODING 117
SWIDTH 630 0
DWIDTH 7 0
BBX 5 6 1 0
BITMAP
88
88
88
88
88
78
ENDCHAR
STARTCHAR 0076
ENCODING 118
SWIDTH 630 0
DWIDTH 7 0
BBX 5 6 1 0
BITMAP
88
88
90
50
60
20
ENDCHAR
STARTCHAR 0077
ENCODING 119
SWIDTH 810 0
DWIDTH 9 0
BBX 7 6 1 0
BITMAP
92
92
AA
AA
4C
44
ENDCHAR
STARTCHAR 0078
ENCODING 120
SWIDTH 630 0
DWIDTH 7 0
BBX 5 6 1 0
BITMAP
88
50
60
60
50
88
ENDCHAR
STARTCHAR 0079
ENCODING 121
SWIDTH 630 0
DWIDTH 7 0
BBX 5 8 1 -2
BITMAP
88
98
90
50
60
20
40
40
ENDCHAR
STARTCHAR 007A
ENCODING 122
SWIDTH 540 0
DWIDTH 6 0
BBX 5 6 0 0
BITMAP
78
08
10
20
40
F8
ENDCHAR
STARTCHAR 007B
ENCODING 123
SWIDTH 630 0
DWIDTH 7 0
BBX 5 11 1 -2
BITMAP
18
20
20
20
60
80
60
20
20
20
18
ENDCHAR
STARTCHAR 007C
ENCODING 124
SWIDTH 450 0
DWIDTH 5 0
BBX 1 11 2 -2
BITMAP
80
80
80
80
80
80
80
80
80
80
80
ENDCHAR
STARTCHAR 007D
ENCODING 125
SWIDTH 630 0
DWIDTH 7 0
BBX 5 11 1 -2
BITMAP
C0
20
20
20
30
08
30
20
20
20
C0
ENDCHAR
STARTCHAR 007E
ENCODING 126
SWIDTH 810 0
DWIDTH 9 0
BBX 7 3 1 2
BITMAP
62
92
8C
ENDCHAR
STARTCHAR 00A0
ENCODING 160
SWIDTH 360 0
DWIDTH 4 0
BBX 0 0 0 0
BITMAP
ENDCHAR
STARTCHAR 00A1
ENCODING 161
SWIDTH 360 0
DWIDTH 4 0
BBX 1 8 2 0
BITMAP
80
00
80
80
80
80
80
80
ENDCHAR
STARTCHAR 00A2
ENCODING 162
SWIDTH 630 0
DWIDTH 7 0
BBX 5 10 1 -2
BITMAP
20
20
78
A0
A0
A0
A0
78
20
20
ENDCHAR
STARTCHAR 00A3
ENCODING 163
SWIDTH 630 0
DWIDTH 7 0
BBX 5 8 1 0
BITMAP
38
40
40
40
F0
40
80
F8
ENDCHAR
STARTCHAR 00A4
ENCODING 164
SWIDTH 630 0
DWIDTH 7 0
BBX 5 5 1 1
BITMAP
88
70
50
70
88
ENDCHAR
STARTCHAR 00A5
ENCODING 165
SWIDTH 630 0
DWIDTH 7 0
BBX 5 8 1 0
BITMAP
88
88
50
50
20
F8
20
F8
ENDCHAR
STARTCHAR 00A6
ENCODING 166
SWIDTH 450 0
DWIDTH 5 0
BBX 1 11 2 -2
BITMAP
80
80
80
80
00
00
80
80
80
80
80
ENDCHAR
STARTCHAR 00A7
ENCODING 167
SWIDTH 630 0
DWIDTH 7 0
BBX 5 10 1 -2
BITMAP
78
80
80
70
88
88
70
08
08
F0
ENDCHAR
STARTCHAR 00A8
ENCODING 168
SWIDTH 630 0
DWIDTH 7 0
BBX 3 1 2 7
BITMAP
A0
ENDCHAR
STARTCHAR 00A9
ENCODING 169
SWIDTH 990 0
DWIDTH 11 0
BBX 9 9 1 -1
BITMAP
3E00
4100
9C80
A080
A080
A080
9C80
4100
3E00
ENDCHAR
STARTCHAR 00AA
ENCODING 170
SWIDTH 540 0
DWIDTH 6 0
BBX 4 5 1 3
BITMAP
F0
10
F0
90
F0
ENDCHAR
STARTCHAR 00AB
ENCODING 171
SWIDTH 630 0
DWIDTH 7 0
BBX 5 5 1 1
BITMAP
28
58
A0
58
28
ENDCHAR
STARTCHAR 00AC
ENCODING 172
SWIDTH 810 0
DWIDTH 9 0
BBX 7 4 1 0
BITMAP
FE
02
02
02
ENDCHAR
STARTCHAR 00AD
ENCODING 173
SWIDTH 450 0
DWIDTH 5 0
BBX 3 1 1 3
BITMAP
E0
ENDCHAR
STARTCHAR 00AE
ENCODING 174
SWIDTH 990 0
DWIDTH 11 0
BBX 9 9 1 -1
BITMAP
3E00
4100
9C80
9280
9C80
9480
9280
4100
3E00
ENDCHAR
STARTCHAR 00AF
ENCODING 175
SWIDTH 630 0
DWIDTH 7 0
BBX 7 1 0 9
BITMAP
FE
ENDCHAR
STARTCHAR 00B0
ENCODING 176
SWIDTH 540 0
DWIDTH 6 0
BBX 4 4 1 4
BITMAP
60
90
90
60
ENDCHAR
STARTCHAR 00B1
ENCODING 177
SWIDTH 810 0
DWIDTH 9 0
BBX 7 7 1 1
BITMAP
10
10
10
FE
10
10
FE
ENDCHAR
STARTCHAR 00B2
ENCODING 178
SWIDTH 540 0
DWIDTH 6 0
BBX 4 5 1 3
BITMAP
F0
10
20
40
F0
ENDCHAR
STARTCHAR 00B3
ENCODING 179
SWIDTH 540 0
DWIDTH 6 0
BBX 4 5 1 3
BITMAP
F0
10
60
10
F0
ENDCHAR
STARTCHAR 00B4
ENCODING 180
SWIDTH 630 0
DWIDTH 7 0
BBX 2 2 3 7
BITMAP
40
80
ENDCHAR
STARTCHAR 00B5
ENCODING 181
SWIDTH 630 0
DWIDTH 7 0
BBX 5 8 1 -2
BITMAP
88
88
88
88
88
F8
80
80
ENDCHAR
STARTCHAR 00B6
ENCODING 182
SWIDTH 630 0
DWIDTH 7 0
BBX 5 10 1 -2
BITMAP
78
E8
E8
E8
68
28
28
28
28
28
ENDCHAR
STARTCHAR 00B7
ENCODING 183
SWIDTH 360 0
DWIDTH 4 0
BBX 2 2 1 3
BITMAP
C0
C0
ENDCHAR
STARTCHAR 00B8
ENCODING 184
SWIDTH 630 0
DWIDTH 7 0
BBX 3 2 2 -2
BITMAP
20
C0
ENDCHAR
STARTCHAR 00B9
ENCODING 185
SWIDTH 540 0
DWIDTH 6 0
BBX 3 5 2 3
BITMAP
40
C0
40
40
E0
ENDCHAR
STARTCHAR 00BA
ENCODING 186
SWIDTH 540 0
DWIDTH 6 0
BBX 4 5 1 3
BITMAP
F0
90
90
90
F0
ENDCHAR
STARTCHAR 00BB
ENCODING 187
SWIDTH 630 0
DWIDTH 7 0
BBX 5 5 1 1
BITMAP
A0
50
28
50
A0
ENDCHAR
STARTCHAR 00BC
ENCODING 188
SWIDTH 990 0
DWIDTH 11 0
BBX 9 8 1 0
BITMAP
4400
C400
4800
4900
5300
1500
2780
2100
ENDCHAR
STARTCHAR 00BD
ENCODING 189
SWIDTH 990 0
DWIDTH 11 0
BBX 10 8 1 0
BITMAP
4400
C400
4800
4B80
5080
1080
2300
23C0
ENDCHAR
STARTCHAR 00BE
ENCODING 190
SWIDTH 990 0
DWIDTH 11 0
BBX 9 8 1 0
BITMAP
E200
2400
4400
2900
EA80
1480
1780
2100
ENDCHAR
STARTCHAR 00BF
ENCODING 191
SWIDTH 540 0
DWIDTH 6 0
BBX 4 8 1 0
BITMAP
20
00
20
60
80
80
90
F0
ENDCHAR
STARTCHAR 00C0
ENCODING 192
SWIDTH 720 0
DWIDTH 8 0
BBX 7 11 0 0
BITMAP
10
10
00
18
18
28
24
64
7C
42
82
ENDCHAR
STARTCHAR 00C1
ENCODING 193
SWIDTH 720 0
DWIDTH 8 0
BBX 7 11 0 0
BITMAP
08
10
00
18
18
28
24
64
7C
42
82
ENDCHAR
STARTCHAR 00C2
ENCODING 194
SWIDTH 720 0
DWIDTH 8 0
BBX 7 11 0 0
BITMAP
18
28
00
18
18
28
24
64
7C
42
82
ENDCHAR
STARTCHAR 00C3
ENCODING 195
SWIDTH 720 0
DWIDTH 8 0
BBX 7 11 0 0
BITMAP
34
4C
00
18
18
28
24
64
7C
42
82
ENDCHAR
STARTCHAR 00C4
ENCODING 196
SWIDTH 720 0
DWIDTH 8 0
BBX 7 10 0 0
BITMAP
28
00
18
18
28
24
64
7C
42
82
ENDCHAR
STARTCHAR 00C5
ENCODING 197
SWIDTH 720 0
DWIDTH 8 0
BBX 7 11 0 0
BITMAP
38
24
24
18
18
28
24
64
7C
42
82
ENDCHAR
STARTCHAR 00C6
ENCODING 198
SWIDTH 990 0
DWIDTH 11 0
BBX 10 8 0 0
BITMAP
1FC0
1400
2400
27C0
7C00
4400
4400
87C0
ENDCHAR
STARTCHAR 00C7
ENCODING 199
SWIDTH 720 0
DWIDTH 8 0
BBX 6 10 1 -2
BITMAP
7C
C4
80
80
80
80
C4
7C
08
30
ENDCHAR
STARTCHAR 00C8
ENCODING 200
SWIDTH 630 0
DWIDTH 7 0
BBX 5 11 1 0
BITMAP
20
20
00
F8
80
80
F8
80
80
80
F8
ENDCHAR
STARTCHAR 00C9
ENCODING 201
SWIDTH 630 0
DWIDTH 7 0
BBX 5 11 1 0
BITMAP
10
20
00
F8
80
80
F8
80
80
80
F8
ENDCHAR
STARTCHAR 00CA
ENCODING 202
SWIDTH 630 0
DWIDTH 7 0
BBX 5 11 1 0
BITMAP
30
50
00
F8
80
80
F8
80
80
80
F8
ENDCHAR
STARTCHAR 00CB
ENCODING 203
SWIDTH 630 0
DWIDTH 7 0
BBX 5 10 1 0
BITMAP
48
00
F8
80
80
F8
80
80
80
F8
ENDCHAR
STARTCHAR 00CC
ENCODING 204
SWIDTH 450 0
DWIDTH 5 0
BBX 3 11 1 0
BITMAP
80
40
00
E0
40
40
40
40
40
40
E0
ENDCHAR
STARTCHAR 00CD
ENCODING 205
SWIDTH 450 0
DWIDTH 5 0
BBX 3 11 1 0
BITMAP
60
40
00
E0
40
40
40
40
40
40
E0
ENDCHAR
STARTCHAR 00CE
ENCODING 206
SWIDTH 450 0
DWIDTH 5 0
BBX 3 11 1 0
BITMAP
C0
A0
00
E0
40
40
40
40
40
40
E0
ENDCHAR
STARTCHAR 00CF
ENCODING 207
SWIDTH 450 0
DWIDTH 5 0
BBX 3 10 1 0
BITMAP
A0
00
E0
40
40
40
40
40
40
E0
ENDCHAR
STARTCHAR 00D0
ENCODING 208
SWIDTH 810 0
DWIDTH 9 0
BBX 8 8 0 0
BITMAP
7C
42
43
F1
41
43
42
7C
ENDCHAR
STARTCHAR 00D1
ENCODING 209
SWIDTH 720 0
DWIDTH 8 0
BBX 6 11 1 0
BITMAP
64
58
00
C4
E4
A4
B4
94
8C
8C
84
ENDCHAR
STARTCHAR 00D2
ENCODING 210
SWIDTH 810 0
DWIDTH 9 0
BBX 7 11 1 0
BITMAP
20
10
00
78
C4
82
82
82
82
C4
78
ENDCHAR
STARTCHAR 00D3
ENCODING 211
SWIDTH 810 0
DWIDTH 9 0
BBX 7 11 1 0
BITMAP
10
10
00
78
C4
82
82
82
82
C4
78
ENDCHAR
STARTCHAR 00D4
ENCODING 212
SWIDTH 810 0
DWIDTH 9 0
BBX 7 11 1 0
BITMAP
30
28
00
78
C4
82
82
82
82
C4
78
ENDCHAR
STARTCHAR 00D5
ENCODING 213
SWIDTH 810 0
DWIDTH 9 0
BBX 7 11 1 0
BITMAP
64
58
00
78
C4
82
82
82
82
C4
78
ENDCHAR
STARTCHAR 00D6
ENCODING 214
SWIDTH 810 0
DWIDTH 9 0
BBX 7 10 1 0
BITMAP
28
00
78
C4
82
82
82
82
C4
78
ENDCHAR
STARTCHAR 00D7
ENCODING 215
SWIDTH 810 0
DWIDTH 9 0
BBX 5 5 2 1
BITMAP
88
50
20
50
88
ENDCHAR
STARTCHAR 00D8
ENCODING 216
SWIDTH 810 0
DWIDTH 9 0
BBX 7 9 1 -1
BITMAP
02
7C
C4
8A
92
A2
A2
C4
F8
ENDCHAR
STARTCHAR 00D9
ENCODING 217
SWIDTH 720 0
DWIDTH 8 0
BBX 6 11 1 0
BITMAP
20
10
00
84
84
84
84
84
84
CC
78
ENDCHAR
STARTCHAR 00DA
ENCODING 218
SWIDTH 720 0
DWIDTH 8 0
BBX 6 11 1 0
BITMAP
10
10
00
84
84
84
84
84
84
CC
78
ENDCHAR
STARTCHAR 00DB
ENCODING 219
SWIDTH 720 0
DWIDTH 8 0
BBX 6 11 1 0
BITMAP
30
48
00
84
84
84
84
84
84
CC
78
ENDCHAR
STARTCHAR 00DC
ENCODING 220
SWIDTH 720 0
DWIDTH 8 0
BBX 6 10 1 0
BITMAP
48
00
84
84
84
84
84
84
CC
78
ENDCHAR
STARTCHAR 00DD
ENCODING 221
SWIDTH 630 0
DWIDTH 7 0
BBX 6 11 0 0
BITMAP
18
10
00
C4
44
28
38
10
10
10
10
ENDCHAR
STARTCHAR 00DE
ENCODING 222
SWIDTH 630 0
DWIDTH 7 0
BBX 5 8 1 0
BITMAP
80
80
F8
88
88
F0
80
80
ENDCHAR
STARTCHAR 00DF
ENCODING 223
SWIDTH 630 0
DWIDTH 7 0
BBX 5 9 1 0
BITMAP
70
88
88
B0
88
88
88
88
B0
ENDCHAR
STARTCHAR 00E0
ENCODING 224
SWIDTH 630 0
DWIDTH 7 0
BBX 5 9 1 0
BITMAP
40
20
00
F0
08
78
88
98
E8
ENDCHAR
STARTCHAR 00E1
ENCODING 225
SWIDTH 630 0
DWIDTH 7 0
BBX 5 9 1 0
BITMAP
30
20
00
F0
08
78
88
98
E8
ENDCHAR
STARTCHAR 00E2
ENCODING 226
SWIDTH 630 0
DWIDTH 7 0
BBX 5 9 1 0
BITMAP
60
50
00
F0
08
78
88
98
E8
ENDCHAR
STARTCHAR 00E3
ENCODING 227
SWIDTH 630 0
DWIDTH 7 0
BBX 5 9 1 0
BITMAP
48
B0
00
F0
08
78
88
98
E8
ENDCHAR
STARTCHAR 00E4
ENCODING 228
SWIDTH 630 0
DWIDTH 7 0
BBX 5 8 1 0
BITMAP
50
00
F0
08
78
88
98
E8
ENDCHAR
STARTCHAR 00E5
ENCODING 229
SWIDTH 630 0
DWIDTH 7 0
BBX 5 11 1 0
BITMAP
70
90
90
70
00
F0
08
78
88
98
E8
ENDCHAR
STARTCHAR 00E6
ENCODING 230
SWIDTH 990 0
DWIDTH 11 0
BBX 9 6 1 0
BITMAP
F700
0880
FF80
8800
9880
E780
ENDCHAR
STARTCHAR 00E7
ENCODING 231
SWIDTH 540 0
DWIDTH 6 0
BBX 4 8 1 -2
BITMAP
70
90
80
80
90
70
10
60
ENDCHAR
STARTCHAR 00E8
ENCODING 232
SWIDTH 630 0
DWIDTH 7 0
BBX 5 9 1 0
BITMAP
40
20
00
70
88
F8
80
88
78
ENDCHAR
STARTCHAR 00E9
ENCODING 233
SWIDTH 630 0
DWIDTH 7 0
BBX 5 9 1 0
BITMAP
10
20
00
70
88
F8
80
88
78
ENDCHAR
STARTCHAR 00EA
ENCODING 234
SWIDTH 630 0
DWIDTH 7 0
BBX 5 9 1 0
BITMAP
20
50
00
70
88
F8
80
88
78
ENDCHAR
STARTCHAR 00EB
ENCODING 235
SWIDTH 630 0
DWIDTH 7 0
BBX 5 8 1 0
BITMAP
50
00
70
88
F8
80
88
78
ENDCHAR
STARTCHAR 00EC
ENCODING 236
SWIDTH 270 0
DWIDTH 3 0
BBX 2 9 0 0
BITMAP
80
40
00
40
40
40
40
40
40
ENDCHAR
STARTCHAR 00ED
ENCODING 237
SWIDTH 270 0
DWIDTH 3 0
BBX 2 9 1 0
BITMAP
40
80
00
80
80
80
80
80
80
ENDCHAR
STARTCHAR 00EE
ENCODING 238
SWIDTH 270 0
DWIDTH 3 0
BBX 3 9 0 0
BITMAP
40
A0
00
40
40
40
40
40
40
ENDCHAR
STARTCHAR 00EF
ENCODING 239
SWIDTH 270 0
DWIDTH 3 0
BBX 3 8 0 0
BITMAP
A0
00
40
40
40
40
40
40
ENDCHAR
STARTCHAR 00F0
ENCODING 240
SWIDTH 630 0
DWIDTH 7 0
BBX 5 8 1 0
BITMAP
70
50
08
F8
88
88
88
70
ENDCHAR
STARTCHAR 00F1
ENCODING 241
SWIDTH 630 0
DWIDTH 7 0
BBX 5 9 1 0
BITMAP
68
B0
00
F0
88
88
88
88
88
ENDCHAR
STARTCHAR 00F2
ENCODING 242
SWIDTH 630 0
DWIDTH 7 0
BBX 5 9 1 0
BITMAP
40
20
00
70
88
88
88
88
70
ENDCHAR
STARTCHAR 00F3
ENCODING 243
SWIDTH 630 0
DWIDTH 7 0
BBX 5 9 1 0
BITMAP
30
20
00
70
88
88
88
88
70
ENDCHAR
STARTCHAR 00F4
ENCODING 244
SWIDTH 630 0
DWIDTH 7 0
BBX 5 9 1 0
BITMAP
60
50
00
70
88
88
88
88
70
ENDCHAR
STARTCHAR 00F5
ENCODING 245
SWIDTH 630 0
DWIDTH 7 0
BBX 5 9 1 0
BITMAP
48
B0
00
70
88
88
88
88
70
ENDCHAR
STARTCHAR 00F6
ENCODING 246
SWIDTH 630 0
DWIDTH 7 0
BBX 5 8 1 0
BITMAP
50
00
70
88
88
88
88
70
ENDCHAR
STARTCHAR 00F7
ENCODING 247
SWIDTH 810 0
DWIDTH 9 0
BBX 7 7 1 0
BITMAP
10
10
00
FE
00
10
10
ENDCHAR
STARTCHAR 00F8
ENCODING 248
SWIDTH 630 0
DWIDTH 7 0
BBX 5 7 1 -1
BITMAP
08
70
98
A8
C8
88
F0
ENDCHAR
STARTCHAR 00F9
ENCODING 249
SWIDTH 630 0
DWIDTH 7 0
BBX 5 9 1 0
BITMAP
40
20
00
88
88
88
88
88
78
ENDCHAR
STARTCHAR 00FA
ENCODING 250
SWIDTH 630 0
DWIDTH 7 0
BBX 5 9 1 0
BITMAP
10
20
00
88
88
88
88
88
78
ENDCHAR
STARTCHAR 00FB
ENCODING 251
SWIDTH 630 0
DWIDTH 7 0
BBX 5 9 1 0
BITMAP
20
50
00
88
88
88
88
88
78
ENDCHAR
STARTCHAR 00FC
ENCODING 252
SWIDTH 630 0
DWIDTH 7 0
BBX 5 8 1 0
BITMAP
50
00
88
88
88
88
88
78
ENDCHAR
STARTCHAR 00FD
ENCODING 253
SWIDTH 630 0
DWIDTH 7 0
BBX 5 11 1 -2
BITMAP
30
20
00
88
98
90
50
60
20
40
40
ENDCHAR
STARTCHAR 00FE
ENCODING 254
SWIDTH 630 0
DWIDTH 7 0
BBX 5 11 1 -2
BITMAP
80
80
80
F0
88
88
88
88
F0
80
80
ENDCHAR
STARTCHAR 00FF
ENCODING 255
SWIDTH 630 0
DWIDTH 7 0
BBX 5 10 1 -2
BITMAP
50
00
88
98
90
50
60
20
40
40
ENDCHAR
STARTCHAR 0100
ENCODING 256
SWIDTH 720 0
DWIDTH 8 0
BBX 7 10 0 0
BITMAP
3C
00
18
18
28
24
64
7C
42
82
ENDCHAR
STARTCHAR 0101
ENCODING 257
SWIDTH 630 0
DWIDTH 7 0
BBX 5 8 1 0
BITMAP
F0
00
F0
08
78
88
98
E8
ENDCHAR
STARTCHAR 0102
ENCODING 258
SWIDTH 720 0
DWIDTH 8 0
BBX 7 11 0 0
BITMAP
24
38
00
18
18
28
24
64
7C
42
82
ENDCHAR
STARTCHAR 0103
ENCODING 259
SWIDTH 630 0
DWIDTH 7 0
BBX 5 9 1 0
BITMAP
90
70
00
F0
08
78
88
98
E8
ENDCHAR
STARTCHAR 0104
ENCODING 260
SWIDTH 720 0
DWIDTH 8 0
BBX 8 10 0 -2
BITMAP
18
18
28
24
64
7C
42
82
02
03
ENDCHAR
STARTCHAR 0105
ENCODING 261
SWIDTH 630 0
DWIDTH 7 0
BBX 6 8 1 -2
BITMAP
F0
08
78
88
98
E8
08
0C
ENDCHAR
STARTCHAR 0106
ENCODING 262
SWIDTH 720 0
DWIDTH 8 0
BBX 6 11 1 0
BITMAP
10
10
00
7C
C4
80
80
80
80
C4
7C
ENDCHAR
STARTCHAR 0107
ENCODING 263
SWIDTH 540 0
DWIDTH 6 0
BBX 4 9 1 0
BITMAP
30
20
00
70
90
80
80
90
70
ENDCHAR
STARTCHAR 0108
ENCODING 264
SWIDTH 720 0
DWIDTH 8 0
BBX 6 11 1 0
BITMAP
30
28
00
7C
C4
80
80
80
80
C4
7C
ENDCHAR
STARTCHAR 0109
ENCODING 265
SWIDTH 540 0
DWIDTH 6 0
BBX 4 9 1 0
BITMAP
20
50
00
70
90
80
80
90
70
ENDCHAR
STARTCHAR 010A
ENCODING 266
SWIDTH 720 0
DWIDTH 8 0
BBX 6 10 1 0
BITMAP
10
00
7C
C4
80
80
80
80
C4
7C
ENDCHAR
STARTCHAR 010B
ENCODING 267
SWIDTH 540 0
DWIDTH 6 0
BBX 4 8 1 0
BITMAP
20
00
70
90
80
80
90
70
ENDCHAR
STARTCHAR 010C
ENCODING 268
SWIDTH 720 0
DWIDTH 8 0
BBX 6 11 1 0
BITMAP
28
30
00
7C
C4
80
80
80
80
C4
7C
ENDCHAR
STARTCHAR 010D
ENCODING 269
SWIDTH 540 0
DWIDTH 6 0
BBX 4 9 1 0
BITMAP
50
20
00
70
90
80
80
90
70
ENDCHAR
STARTCHAR 010E
ENCODING 270
SWIDTH 720 0
DWIDTH 8 0
BBX 7 11 1 0
BITMAP
50
30
00
F8
8C
86
82
82
86
84
F8
ENDCHAR
STARTCHAR 010F
ENCODING 271
SWIDTH 630 0
DWIDTH 7 0
BBX 7 9 1 0
BITMAP
0A
0A
0C
78
88
88
88
88
F8
ENDCHAR
STARTCHAR 0110
ENCODING 272
SWIDTH 810 0
DWIDTH 9 0
BBX 8 8 0 0
BITMAP
7C
42
43
F1
41
43
42
7C
ENDCHAR
STARTCHAR 0111
ENCODING 273
SWIDTH 630 0
DWIDTH 7 0
BBX 6 9 1 0
BITMAP
08
3C
08
78
88
88
88
88
F8
ENDCHAR
STARTCHAR 0112
ENCODING 274
SWIDTH 630 0
DWIDTH 7 0
BBX 5 10 1 0
BITMAP
78
00
F8
80
80
F8
80
80
80
F8
ENDCHAR
STARTCHAR 0113
ENCODING 275
SWIDTH 630 0
DWIDTH 7 0
BBX 5 8 1 0
BITMAP
F0
00
70
88
F8
80
88
78
ENDCHAR
STARTCHAR 0114
ENCODING 276
SWIDTH 630 0
DWIDTH 7 0
BBX 5 11 1 0
BITMAP
48
70
00
F8
80
80
F8
80
80
80
F8
ENDCHAR
STARTCHAR 0115
ENCODING 277
SWIDTH 630 0
DWIDTH 7 0
BBX 5 9 1 0
BITMAP
50
70
00
70
88
F8
80
88
78
ENDCHAR
STARTCHAR 0116
ENCODING 278
SWIDTH 630 0
DWIDTH 7 0
BBX 5 10 1 0
BITMAP
20
00
F8
80
80
F8
80
80
80
F8
ENDCHAR
STARTCHAR 0117
ENCODING 279
SWIDTH 630 0
DWIDTH 7 0
BBX 5 8 1 0
BITMAP
20
00
70
88
F8
80
88
78
ENDCHAR
STARTCHAR 0118
ENCODING 280
SWIDTH 630 0
DWIDTH 7 0
BBX 6 10 1 -2
BITMAP
F8
80
80
F8
80
80
80
F8
10
1C
ENDCHAR
STARTCHAR 0119
ENCODING 281
SWIDTH 630 0
DWIDTH 7 0
BBX 5 8 1 -2
BITMAP
70
88
F8
80
88
78
20
18
ENDCHAR
STARTCHAR 011A
ENCODING 282
SWIDTH 630 0
DWIDTH 7 0
BBX 5 11 1 0
BITMAP
50
30
00
F8
80
80
F8
80
80
80
F8
ENDCHAR
STARTCHAR 011B
ENCODING 283
SWIDTH 630 0
DWIDTH 7 0
BBX 5 9 1 0
BITMAP
50
20
00
70
88
F8
80
88
78
ENDCHAR
STARTCHAR 011C
ENCODING 284
SWIDTH 810 0
DWIDTH 9 0
BBX 7 11 1 0
BITMAP
18
28
00
3C
C2
80
80
8E
82
C2
3C
ENDCHAR
STARTCHAR 011D
ENCODING 285
SWIDTH 630 0
DWIDTH 7 0
BBX 5 11 1 -2
BITMAP
20
50
00
78
88
88
88
88
F8
08
F0
ENDCHAR
STARTCHAR 011E
ENCODING 286
SWIDTH 810 0
DWIDTH 9 0
BBX 7 11 1 0
BITMAP
24
38
00
3C
C2
80
80
8E
82
C2
3C
ENDCHAR
STARTCHAR 011F
ENCODING 287
SWIDTH 630 0
DWIDTH 7 0
BBX 5 11 1 -2
BITMAP
50
70
00
78
88
88
88
88
F8
08
F0
ENDCHAR
STARTCHAR 0120
ENCODING 288
SWIDTH 810 0
DWIDTH 9 0
BBX 7 10 1 0
BITMAP
10
00
3C
C2
80
80
8E
82
C2
3C
ENDCHAR
STARTCHAR 0121
ENCODING 289
SWIDTH 630 0
DWIDTH 7 0
BBX 5 10 1 -2
BITMAP
20
00
78
88
88
88
88
F8
08
F0
ENDCHAR
STARTCHAR 0122
ENCODING 290
SWIDTH 810 0
DWIDTH 9 0
BBX 7 10 1 -2
BITMAP
3C
C2
80
80
8E
82
C2
7C
08
30
ENDCHAR
STARTCHAR 0123
ENCODING 291
SWIDTH 630 0
DWIDTH 7 0
BBX 5 12 1 -2
BITMAP
10
20
20
00
78
88
88
88
88
F8
08
F0
ENDCHAR
STARTCHAR 0124
ENCODING 292
SWIDTH 720 0
DWIDTH 8 0
BBX 6 11 1 0
BITMAP
30
28
00
84
84
84
FC
84
84
84
84
ENDCHAR
STARTCHAR 0125
ENCODING 293
SWIDTH 630 0
DWIDTH 7 0
BBX 5 11 1 0
BITMAP
30
50
80
80
80
F0
88
88
88
88
88
ENDCHAR
STARTCHAR 0126
ENCODING 294
SWIDTH 720 0
DWIDTH 8 0
BBX 8 8 0 0
BITMAP
42
FF
42
7E
42
42
42
42
ENDCHAR
STARTCHAR 0127
ENCODING 295
SWIDTH 630 0
DWIDTH 7 0
BBX 6 9 0 0
BITMAP
40
F0
40
78
44
44
44
44
44
ENDCHAR
STARTCHAR 0128
ENCODING 296
SWIDTH 450 0
DWIDTH 5 0
BBX 4 11 0 0
BITMAP
50
B0
00
70
20
20
20
20
20
20
70
ENDCHAR
STARTCHAR 0129
ENCODING 297
SWIDTH 270 0
DWIDTH 3 0
BBX 3 9 0 0
BITMAP
E0
E0
00
40
40
40
40
40
40
ENDCHAR
STARTCHAR 012A
ENCODING 298
SWIDTH 450 0
DWIDTH 5 0
BBX 3 10 1 0
BITMAP
E0
00
E0
40
40
40
40
40
40
E0
ENDCHAR
STARTCHAR 012B
ENCODING 299
SWIDTH 270 0
DWIDTH 3 0
BBX 3 8 0 0
BITMAP
E0
00
40
40
40
40
40
40
ENDCHAR
STARTCHAR 012C
ENCODING 300
SWIDTH 450 0
DWIDTH 5 0
BBX 3 11 1 0
BITMAP
A0
E0
00
E0
40
40
40
40
40
40
E0
ENDCHAR
STARTCHAR 012D
ENCODING 301
SWIDTH 270 0
DWIDTH 3 0
BBX 3 9 0 0
BITMAP
A0
E0
00
40
40
40
40
40
40
ENDCHAR
STARTCHAR 012E
ENCODING 302
SWIDTH 450 0
DWIDTH 5 0
BBX 3 10 1 -2
BITMAP
E0
40
40
40
40
40
40
E0
40
60
ENDCHAR
STARTCHAR 012F
ENCODING 303
SWIDTH 270 0
DWIDTH 3 0
BBX 2 11 1 -2
BITMAP
80
00
00
80
80
80
80
80
80
80
C0
ENDCHAR
STARTCHAR 0130
ENCODING 304
SWIDTH 450 0
DWIDTH 5 0
BBX 3 10 1 0
BITMAP
40
00
E0
40
40
40
40
40
40
E0
ENDCHAR
STARTCHAR 0131
ENCODING 305
SWIDTH 270 0
DWIDTH 3 0
BBX 1 6 1 0
BITMAP
80
80
80
80
80
80
ENDCHAR
STARTCHAR 0132
ENCODING 306
SWIDTH 900 0
DWIDTH 10 0
BBX 8 8 1 0
BITMAP
E7
41
41
41
41
41
43
EE
ENDCHAR
STARTCHAR 0133
ENCODING 307
SWIDTH 630 0
DWIDTH 7 0
BBX 5 11 1 -2
BITMAP
88
00
00
B8
88
88
88
88
88
08
30
ENDCHAR
STARTCHAR 0134
ENCODING 308
SWIDTH 450 0
DWIDTH 5 0
BBX 4 11 0 0
BITMAP
30
50
00
70
10
10
10
10
10
10
E0
ENDCHAR
STARTCHAR 0135
ENCODING 309
SWIDTH 360 0
DWIDTH 4 0
BBX 3 11 0 -2
BITMAP
60
A0
00
60
20
20
20
20
20
20
C0
ENDCHAR
STARTCHAR 0136
ENCODING 310
SWIDTH 720 0
DWIDTH 8 0
BBX 6 10 1 -2
BITMAP
84
88
90
A0
E0
90
88
84
10
60
ENDCHAR
STARTCHAR 0137
ENCODING 311
SWIDTH 630 0
DWIDTH 7 0
BBX 5 11 1 -2
BITMAP
80
80
80
98
90
A0
E0
90
88
20
E0
ENDCHAR
STARTCHAR 0138
ENCODING 312
SWIDTH 630 0
DWIDTH 7 0
BBX 5 6 1 0
BITMAP
98
90
A0
E0
90
88
ENDCHAR
STARTCHAR 0139
ENCODING 313
SWIDTH 540 0
DWIDTH 6 0
BBX 5 11 1 0
BITMAP
40
80
00
80
80
80
80
80
80
80
F8
ENDCHAR
STARTCHAR 013A
ENCODING 314
SWIDTH 270 0
DWIDTH 3 0
BBX 2 11 1 0
BITMAP
40
80
00
80
80
80
80
80
80
80
80
ENDCHAR
STARTCHAR 013B
ENCODING 315
SWIDTH 540 0
DWIDTH 6 0
BBX 5 10 1 -2
BITMAP
80
80
80
80
80
80
80
F8
10
60
ENDCHAR
STARTCHAR 013C
ENCODING 316
SWIDTH 270 0
DWIDTH 3 0
BBX 3 11 0 -2
BITMAP
40
40
40
40
40
40
40
40
40
20
C0
ENDCHAR
STARTCHAR 013D
ENCODING 317
SWIDTH 540 0
DWIDTH 6 0
BBX 5 9 1 0
BITMAP
10
A0
A0
80
80
80
80
80
F8
ENDCHAR
STARTCHAR 013E
ENCODING 318
SWIDTH 270 0
DWIDTH 3 0
BBX 3 9 1 0
BITMAP
A0
A0
A0
80
80
80
80
80
80
ENDCHAR
STARTCHAR 013F
ENCODING 319
SWIDTH 540 0
DWIDTH 6 0
BBX 5 8 1 0
BITMAP
80
80
80
90
90
80
80
F8
ENDCHAR
STARTCHAR 0140
ENCODING 320
SWIDTH 450 0
DWIDTH 5 0
BBX 4 9 1 0
BITMAP
80
80
80
80
B0
B0
80
80
80
ENDCHAR
STARTCHAR 0141
ENCODING 321
SWIDTH 540 0
DWIDTH 6 0
BBX 6 8 0 0
BITMAP
40
40
50
60
40
C0
40
7C
ENDCHAR
STARTCHAR 0142
ENCODING 322
SWIDTH 270 0
DWIDTH 3 0
BBX 3 9 0 0
BITMAP
40
40
40
60
40
C0
40
40
40
ENDCHAR
STARTCHAR 0143
ENCODING 323
SWIDTH 720 0
DWIDTH 8 0
BBX 6 11 1 0
BITMAP
10
10
00
C4
E4
A4
B4
94
8C
8C
84
ENDCHAR
STARTCHAR 0144
ENCODING 324
SWIDTH 630 0
DWIDTH 7 0
BBX 5 9 1 0
BITMAP
10
20
00
F0
88
88
88
88
88
ENDCHAR
STARTCHAR 0145
ENCODING 325
SWIDTH 720 0
DWIDTH 8 0
BBX 6 10 1 -2
BITMAP
C4
E4
A4
B4
94
8C
8C
84
10
60
ENDCHAR
STARTCHAR 0146
ENCODING 326
SWIDTH 630 0
DWIDTH 7 0
BBX 5 8 1 -2
BITMAP
F0
88
88
88
88
88
20
E0
ENDCHAR
STARTCHAR 0147
ENCODING 327
SWIDTH 720 0
DWIDTH 8 0
BBX 6 11 1 0
BITMAP
28
30
00
C4
E4
A4
B4
94
8C
8C
84
ENDCHAR
STARTCHAR 0148
ENCODING 328
SWIDTH 630 0
DWIDTH 7 0
BBX 5 9 1 0
BITMAP
50
30
00
F0
88
88
88
88
88
ENDCHAR
STARTCHAR 0149
ENCODING 329
SWIDTH 720 0
DWIDTH 8 0
BBX 7 9 0 0
BITMAP
40
80
80
3E
22
22
22
22
22
ENDCHAR
STARTCHAR 014A
ENCODING 330
SWIDTH 720 0
DWIDTH 8 0
BBX 6 10 1 -2
BITMAP
C4
E4
A4
94
94
8C
8C
84
04
1C
ENDCHAR
STARTCHAR 014B
ENCODING 331
SWIDTH 630 0
DWIDTH 7 0
BBX 5 8 1 -2
BITMAP
F0
88
88
88
88
88
08
30
ENDCHAR
STARTCHAR 014C
ENCODING 332
SWIDTH 810 0
DWIDTH 9 0
BBX 7 10 1 0
BITMAP
78
00
78
C4
82
82
82
82
C4
78
ENDCHAR
STARTCHAR 014D
ENCODING 333
SWIDTH 630 0
DWIDTH 7 0
BBX 5 8 1 0
BITMAP
F0
00
70
88
88
88
88
70
ENDCHAR
STARTCHAR 014E
ENCODING 334
SWIDTH 810 0
DWIDTH 9 0
BBX 7 11 1 0
BITMAP
48
38
00
78
C4
82
82
82
82
C4
78
ENDCHAR
STARTCHAR 014F
ENCODING 335
SWIDTH 630 0
DWIDTH 7 0
BBX 5 9 1 0
BITMAP
90
70
00
70
88
88
88
88
70
ENDCHAR
STARTCHAR 0150
ENCODING 336
SWIDTH 810 0
DWIDTH 9 0
BBX 7 11 1 0
BITMAP
2C
28
00
78
C4
82
82
82
82
C4
78
ENDCHAR
STARTCHAR 0151
ENCODING 337
SWIDTH 630 0
DWIDTH 7 0
BBX 5 9 1 0
BITMAP
58
50
00
70
88
88
88
88
70
ENDCHAR
STARTCHAR 0152
ENCODING 338
SWIDTH 1080 0
DWIDTH 12 0
BBX 10 8 1 0
BITMAP
3FC0
C400
8400
87C0
8400
8400
C400
3FC0
ENDCHAR
STARTCHAR 0153
ENCODING 339
SWIDTH 990 0
DWIDTH 11 0
BBX 9 6 1 0
BITMAP
7700
8880
8F80
8800
8C80
7780
ENDCHAR
STARTCHAR 0154
ENCODING 340
SWIDTH 720 0
DWIDTH 8 0
BBX 6 11 1 0
BITMAP
10
20
00
F0
88
88
88
F0
90
88
84
ENDCHAR
STARTCHAR 0155
ENCODING 341
SWIDTH 450 0
DWIDTH 5 0
BBX 4 9 1 0
BITMAP
20
40
00
F0
80
80
80
80
80
ENDCHAR
STARTCHAR 0156
ENCODING 342
SWIDTH 720 0
DWIDTH 8 0
BBX 6 10 1 -2
BITMAP
F0
88
88
88
F0
90
88
84
10
60
ENDCHAR
STARTCHAR 0157
ENCODING 343
SWIDTH 450 0
DWIDTH 5 0
BBX 5 8 0 -2
BITMAP
78
40
40
40
40
40
20
C0
ENDCHAR
STARTCHAR 0158
ENCODING 344
SWIDTH 720 0
DWIDTH 8 0
BBX 6 11 1 0
BITMAP
50
20
00
F0
88
88
88
F0
90
88
84
ENDCHAR
STARTCHAR 0159
ENCODING 345
SWIDTH 450 0
DWIDTH 5 0
BBX 4 9 1 0
BITMAP
A0
60
00
F0
80
80
80
80
80
ENDCHAR
STARTCHAR 015A
ENCODING 346
SWIDTH 720 0
DWIDTH 8 0
BBX 6 11 1 0
BITMAP
10
20
00
78
84
80
E0
1C
04
8C
F8
ENDCHAR
STARTCHAR 015B
ENCODING 347
SWIDTH 540 0
DWIDTH 6 0
BBX 4 9 1 0
BITMAP
20
20
00
F0
90
C0
30
90
F0
ENDCHAR
STARTCHAR 015C
ENCODING 348
SWIDTH 720 0
DWIDTH 8 0
BBX 6 11 1 0
BITMAP
30
50
00
78
84
80
E0
1C
04
8C
F8
ENDCHAR
STARTCHAR 015D
ENCODING 349
SWIDTH 540 0
DWIDTH 6 0
BBX 4 9 1 0
BITMAP
60
90
00
F0
90
C0
30
90
F0
ENDCHAR
STARTCHAR 015E
ENCODING 350
SWIDTH 720 0
DWIDTH 8 0
BBX 6 10 1 -2
BITMAP
78
84
80
E0
1C
04
8C
F8
10
70
ENDCHAR
STARTCHAR 015F
ENCODING 351
SWIDTH 540 0
DWIDTH 6 0
BBX 4 8 1 -2
BITMAP
F0
90
C0
30
90
F0
20
E0
ENDCHAR
STARTCHAR 0160
ENCODING 352
SWIDTH 720 0
DWIDTH 8 0
BBX 6 11 1 0
BITMAP
50
30
00
78
84
80
E0
1C
04
8C
F8
ENDCHAR
STARTCHAR 0161
ENCODING 353
SWIDTH 540 0
DWIDTH 6 0
BBX 4 9 1 0
BITMAP
90
60
00
F0
90
C0
30
90
F0
ENDCHAR
STARTCHAR 0162
ENCODING 354
SWIDTH 630 0
DWIDTH 7 0
BBX 7 10 0 -2
BITMAP
FE
10
10
10
10
10
10
10
10
70
ENDCHAR
STARTCHAR 0163
ENCODING 355
SWIDTH 360 0
DWIDTH 4 0
BBX 4 10 0 -2
BITMAP
40
40
F0
40
40
40
40
70
10
60
ENDCHAR
STARTCHAR 0164
ENCODING 356
SWIDTH 630 0
DWIDTH 7 0
BBX 7 11 0 0
BITMAP
28
30
00
FE
10
10
10
10
10
10
10
ENDCHAR
STARTCHAR 0165
ENCODING 357
SWIDTH 360 0
DWIDTH 4 0
BBX 5 10 0 0
BITMAP
18
10
50
40
F0
40
40
40
40
70
ENDCHAR
STARTCHAR 0166
ENCODING 358
SWIDTH 630 0
DWIDTH 7 0
BBX 7 8 0 0
BITMAP
FE
10
10
7C
10
10
10
10
ENDCHAR
STARTCHAR 0167
ENCODING 359
SWIDTH 360 0
DWIDTH 4 0
BBX 4 8 0 0
BITMAP
40
40
F0
40
F0
40
40
70
ENDCHAR
STARTCHAR 0168
ENCODING 360
SWIDTH 720 0
DWIDTH 8 0
BBX 6 11 1 0
BITMAP
68
58
00
84
84
84
84
84
84
CC
78
ENDCHAR
STARTCHAR 0169
ENCODING 361
SWIDTH 630 0
DWIDTH 7 0
BBX 5 9 1 0
BITMAP
68
B0
00
88
88
88
88
88
78
ENDCHAR
STARTCHAR 016A
ENCODING 362
SWIDTH 720 0
DWIDTH 8 0
BBX 6 10 1 0
BITMAP
78
00
84
84
84
84
84
84
CC
78
ENDCHAR
STARTCHAR 016B
ENCODING 363
SWIDTH 630 0
DWIDTH 7 0
BBX 5 8 1 0
BITMAP
F0
00
88
88
88
88
88
78
ENDCHAR
STARTCHAR 016C
ENCODING 364
SWIDTH 720 0
DWIDTH 8 0
BBX 6 11 1 0
BITMAP
48
30
00
84
84
84
84
84
84
CC
78
ENDCHAR
STARTCHAR 016D
ENCODING 365
SWIDTH 630 0
DWIDTH 7 0
BBX 5 9 1 0
BITMAP
50
70
00
88
88
88
88
88
78
ENDCHAR
STARTCHAR 016E
ENCODING 366
SWIDTH 720 0
DWIDTH 8 0
BBX 6 11 1 0
BITMAP
30
48
48
B4
84
84
84
84
84
CC
78
ENDCHAR
STARTCHAR 016F
ENCODING 367
SWIDTH 630 0
DWIDTH 7 0
BBX 5 11 1 0
BITMAP
70
50
50
70
00
88
88
88
88
88
78
ENDCHAR
STARTCHAR 0170
ENCODING 368
SWIDTH 720 0
DWIDTH 8 0
BBX 6 11 1 0
BITMAP
28
28
00
84
84
84
84
84
84
CC
78
ENDCHAR
STARTCHAR 0171
ENCODING 369
SWIDTH 630 0
DWIDTH 7 0
BBX 5 9 1 0
BITMAP
28
50
00
88
88
88
88
88
78
ENDCHAR
STARTCHAR 0172
ENCODING 370
SWIDTH 720 0
DWIDTH 8 0
BBX 6 10 1 -2
BITMAP
84
84
84
84
84
84
CC
78
10
0C
ENDCHAR
STARTCHAR 0173
ENCODING 371
SWIDTH 630 0
DWIDTH 7 0
BBX 6 8 1 -2
BITMAP
88
88
88
88
88
78
08
0C
ENDCHAR
STARTCHAR 0174
ENCODING 372
SWIDTH 990 0
DWIDTH 11 0
BBX 9 11 1 0
BITMAP
0800
1400
0000
8880
8880
9480
9500
5500
6500
6300
6200
ENDCHAR
STARTCHAR 0175
ENCODING 373
SWIDTH 810 0
DWIDTH 9 0
BBX 7 9 1 0
BITMAP
10
28
00
92
92
AA
AA
4C
44
ENDCHAR
STARTCHAR 0176
ENCODING 374
SWIDTH 630 0
DWIDTH 7 0
BBX 6 11 0 0
BITMAP
30
28
00
C4
44
28
38
10
10
10
10
ENDCHAR
STARTCHAR 0177
ENCODING 375
SWIDTH 630 0
DWIDTH 7 0
BBX 5 11 1 -2
BITMAP
60
50
00
88
98
90
50
60
20
40
40
ENDCHAR
STARTCHAR 0178
ENCODING 376
SWIDTH 630 0
DWIDTH 7 0
BBX 6 10 0 0
BITMAP
28
00
C4
44
28
38
10
10
10
10
ENDCHAR
STARTCHAR 0179
ENCODING 377
SWIDTH 720 0
DWIDTH 8 0
BBX 6 11 1 0
BITMAP
10
20
00
FC
08
18
10
20
40
80
FC
ENDCHAR
STARTCHAR 017A
ENCODING 378
SWIDTH 540 0
DWIDTH 6 0
BBX 5 9 0 0
BITMAP
10
20
00
78
08
10
20
40
F8
ENDCHAR
STARTCHAR 017B
ENCODING 379
SWIDTH 720 0
DWIDTH 8 0
BBX 6 10 1 0
BITMAP
20
00
FC
08
18
10
20
40
80
FC
ENDCHAR
STARTCHAR 017C
ENCODING 380
SWIDTH 540 0
DWIDTH 6 0
BBX 5 8 0 0
BITMAP
20
00
78
08
10
20
40
F8
ENDCHAR
STARTCHAR 017D
ENCODING 381
SWIDTH 720 0
DWIDTH 8 0
BBX 6 11 1 0
BITMAP
50
30
00
FC
08
18
10
20
40
80
FC
ENDCHAR
STARTCHAR 017E
ENCODING 382
SWIDTH 540 0
DWIDTH 6 0
BBX 5 9 0 0
BITMAP
50
30
00
78
08
10
20
40
F8
ENDCHAR
STARTCHAR 017F
ENCODING 383
SWIDTH 270 0
DWIDTH 3 0
BBX 3 9 1 0
BITMAP
60
80
80
80
80
80
80
80
80
ENDCHAR
STARTCHAR 018F
ENCODING 399
SWIDTH 720 0
DWIDTH 8 0
BBX 7 8 1 0
BITMAP
78
84
06
FE
82
84
C4
78
ENDCHAR
STARTCHAR 0192
ENCODING 402
SWIDTH 630 0
DWIDTH 7 0
BBX 7 9 0 -1
BITMAP
0E
18
10
3C
10
10
20
20
C0
ENDCHAR
STARTCHAR 01A0
ENCODING 416
SWIDTH 810 0
DWIDTH 9 0
BBX 8 8 1 0
BITMAP
79
C5
82
82
82
82
C4
78
ENDCHAR
STARTCHAR 01A1
ENCODING 417
SWIDTH 630 0
DWIDTH 7 0
BBX 6 7 1 0
BITMAP
04
78
88
88
88
88
70
ENDCHAR
STARTCHAR 01AF
ENCODING 431
SWIDTH 720 0
DWIDTH 8 0
BBX 8 9 1 0
BITMAP
01
87
84
84
84
84
84
84
78
ENDCHAR
STARTCHAR 01B0
ENCODING 432
SWIDTH 630 0
DWIDTH 7 0
BBX 7 7 1 0
BITMAP
02
8E
88
88
88
88
78
ENDCHAR
STARTCHAR 01FA
ENCODING 506
SWIDTH 720 0
DWIDTH 8 0
BBX 7 11 0 0
BITMAP
08
18
28
28
18
28
24
24
7C
42
82
ENDCHAR
STARTCHAR 01FB
ENCODING 507
SWIDTH 630 0
DWIDTH 7 0
BBX 5 10 1 0
BITMAP
20
60
50
50
F0
08
78
88
98
E8
ENDCHAR
STARTCHAR 01FC
ENCODING 508
SWIDTH 990 0
DWIDTH 11 0
BBX 10 11 0 0
BITMAP
0200
0200
0000
1FC0
1400
2400
27C0
7C00
4400
4400
87C0
ENDCHAR
STARTCHAR 01FD
ENCODING 509
SWIDTH 990 0
DWIDTH 11 0
BBX 9 9 1 0
BITMAP
0400
0800
0000
F700
0880
FF80
8800
9880
E780
ENDCHAR
STARTCHAR 01FE
ENCODING 510
SWIDTH 810 0
DWIDTH 9 0
BBX 7 11 1 -1
BITMAP
10
10
02
7C
C4
8A
92
A2
A2
C4
F8
ENDCHAR
STARTCHAR 01FF
ENCODING 511
SWIDTH 630 0
DWIDTH 7 0
BBX 5 9 1 -1
BITMAP
30
20
08
70
98
A8
C8
88
F0
ENDCHAR
STARTCHAR 0218
ENCODING 536
SWIDTH 720 0
DWIDTH 8 0
BBX 6 10 1 -2
BITMAP
78
84
80
E0
1C
04
8C
F8
20
20
ENDCHAR
STARTCHAR 0219
ENCODING 537
SWIDTH 540 0
DWIDTH 6 0
BBX 4 8 1 -2
BITMAP
F0
90
C0
30
90
F0
40
40
ENDCHAR
STARTCHAR 021A
ENCODING 538
SWIDTH 630 0
DWIDTH 7 0
BBX 7 10 0 -2
BITMAP
FE
10
10
10
10
10
10
10
10
20
ENDCHAR
STARTCHAR 021B
ENCODING 539
SWIDTH 360 0
DWIDTH 4 0
BBX 4 10 0 -2
BITMAP
40
40
F0
40
40
40
40
70
20
40
ENDCHAR
STARTCHAR 0237
ENCODING 567
SWIDTH 360 0
DWIDTH 4 0
BBX 3 8 0 -2
BITMAP
60
20
20
20
20
20
20
C0
ENDCHAR
STARTCHAR 0259
ENCODING 601
SWIDTH 630 0
DWIDTH 7 0
BBX 5 6 1 0
BITMAP
F0
98
08
F8
88
F0
ENDCHAR
STARTCHAR 02C6
ENCODING 710
SWIDTH 630 0
DWIDTH 7 0
BBX 3 2 2 7
BITMAP
40
A0
ENDCHAR
STARTCHAR 02C7
ENCODING 711
SWIDTH 630 0
DWIDTH 7 0
BBX 3 2 2 7
BITMAP
A0
40
ENDCHAR
STARTCHAR 02C9
ENCODING 713
SWIDTH 630 0
DWIDTH 7 0
BBX 4 1 1 7
BITMAP
F0
ENDCHAR
STARTCHAR 02D8
ENCODING 728
SWIDTH 630 0
DWIDTH 7 0
BBX 3 2 2 7
BITMAP
A0
E0
ENDCHAR
STARTCHAR 02D9
ENCODING 729
SWIDTH 630 0
DWIDTH 7 0
BBX 1 1 3 7
BITMAP
80
ENDCHAR
STARTCHAR 02DA
ENCODING 730
SWIDTH 630 0
DWIDTH 7 0
BBX 3 4 2 7
BITMAP
E0
A0
A0
E0
ENDCHAR
STARTCHAR 02DB
ENCODING 731
SWIDTH 630 0
DWIDTH 7 0
BBX 3 2 2 -2
BITMAP
80
60
ENDCHAR
STARTCHAR 02DC
ENCODING 732
SWIDTH 630 0
DWIDTH 7 0
BBX 5 2 1 7
BITMAP
68
B0
ENDCHAR
STARTCHAR 02DD
ENCODING 733
SWIDTH 630 0
DWIDTH 7 0
BBX 4 2 2 7
BITMAP
50
A0
ENDCHAR
STARTCHAR 0300
ENCODING 768
SWIDTH 0 0
DWIDTH 0 0
BBX 1 2 -4 7
BITMAP
80
80
ENDCHAR
STARTCHAR 0301
ENCODING 769
SWIDTH 0 0
DWIDTH 0 0
BBX 2 2 -4 7
BITMAP
40
80
ENDCHAR
STARTCHAR 0302
ENCODING 770
SWIDTH 630 0
DWIDTH 7 0
BBX 3 2 2 9
BITMAP
40
A0
ENDCHAR
STARTCHAR 0303
ENCODING 771
SWIDTH 0 0
DWIDTH 0 0
BBX 4 2 -5 7
BITMAP
D0
B0
ENDCHAR
STARTCHAR 0306
ENCODING 774
SWIDTH 630 0
DWIDTH 7 0
BBX 3 2 2 9
BITMAP
A0
E0
ENDCHAR
STARTCHAR 0308
ENCODING 776
SWIDTH 630 0
DWIDTH 7 0
BBX 3 1 2 9
BITMAP
A0
ENDCHAR
STARTCHAR 0309
ENCODING 777
SWIDTH 0 0
DWIDTH 0 0
BBX 2 2 -4 7
BITMAP
C0
80
ENDCHAR
STARTCHAR 030B
ENCODING 779
SWIDTH 630 0
DWIDTH 7 0
BBX 4 2 2 9
BITMAP
50
A0
ENDCHAR
STARTCHAR 030C
ENCODING 780
SWIDTH 630 0
DWIDTH 7 0
BBX 3 2 2 9
BITMAP
A0
40
ENDCHAR
STARTCHAR 0323
ENCODING 803
SWIDTH 0 0
DWIDTH 0 0
BBX 1 1 -4 -2
BITMAP
80
ENDCHAR
STARTCHAR 0326
ENCODING 806
SWIDTH 360 0
DWIDTH 4 0
BBX 2 2 1 -2
BITMAP
C0
80
ENDCHAR
STARTCHAR 0333
ENCODING 819
SWIDTH 0 0
DWIDTH 0 0
BBX 8 3 -4 -3
BITMAP
FF
00
FF
ENDCHAR
STARTCHAR 0347
ENCODING 839
SWIDTH 0 0
DWIDTH 0 0
BBX 6 3 -3 -3
BITMAP
FC
00
FC
ENDCHAR
STARTCHAR 037E
ENCODING 894
SWIDTH 450 0
DWIDTH 5 0
BBX 2 8 1 -2
BITMAP
40
40
00
00
40
40
40
80
ENDCHAR
STARTCHAR 0384
ENCODING 900
SWIDTH 630 0
DWIDTH 7 0
BBX 1 2 3 7
BITMAP
80
80
ENDCHAR
STARTCHAR 0385
ENCODING 901
SWIDTH 630 0
DWIDTH 7 0
BBX 5 2 1 7
BITMAP
20
A8
ENDCHAR
STARTCHAR 0386
ENCODING 902
SWIDTH 720 0
DWIDTH 8 0
BBX 7 8 0 0
BITMAP
98
98
28
24
64
7C
42
82
ENDCHAR
STARTCHAR 0387
ENCODING 903
SWIDTH 450 0
DWIDTH 5 0
BBX 1 2 2 4
BITMAP
80
80
ENDCHAR
STARTCHAR 0388
ENCODING 904
SWIDTH 720 0
DWIDTH 8 0
BBX 8 8 0 0
BITMAP
BF
A0
20
3F
20
20
20
3F
ENDCHAR
STARTCHAR 0389
ENCODING 905
SWIDTH 900 0
DWIDTH 10 0
BBX 9 8 0 0
BITMAP
A180
A180
2180
3F80
2180
2180
2180
2180
ENDCHAR
STARTCHAR 038A
ENCODING 906
SWIDTH 540 0
DWIDTH 6 0
BBX 5 8 0 0
BITMAP
B8
90
10
10
10
10
10
38
ENDCHAR
STARTCHAR 038C
ENCODING 908
SWIDTH 900 0
DWIDTH 10 0
BBX 9 8 0 0
BITMAP
9E00
B100
2080
2080
2080
2080
3100
1E00
ENDCHAR
STARTCHAR 038E
ENCODING 910
SWIDTH 720 0
DWIDTH 8 0
BBX 8 8 0 0
BITMAP
A1
B2
12
0C
08
08
08
08
ENDCHAR
STARTCHAR 038F
ENCODING 911
SWIDTH 900 0
DWIDTH 10 0
BBX 9 8 0 0
BITMAP
9F00
B180
2080
2080
2080
1100
0A00
3B80
ENDCHAR
STARTCHAR 0390
ENCODING 912
SWIDTH 270 0
DWIDTH 3 0
BBX 3 9 0 0
BITMAP
40
E0
00
40
40
40
40
40
40
ENDCHAR
STARTCHAR 0391
ENCODING 913
SWIDTH 720 0
DWIDTH 8 0
BBX 7 8 0 0
BITMAP
18
18
28
24
64
7C
42
82
ENDCHAR
STARTCHAR 0392
ENCODING 914
SWIDTH 720 0
DWIDTH 8 0
BBX 6 8 1 0
BITMAP
F8
88
88
F8
84
84
84
F8
ENDCHAR
STARTCHAR 0393
ENCODING 915
SWIDTH 540 0
DWIDTH 6 0
BBX 5 8 1 0
BITMAP
F8
80
80
80
80
80
80
80
ENDCHAR
STARTCHAR 0394
ENCODING 916
SWIDTH 720 0
DWIDTH 8 0
BBX 7 8 0 0
BITMAP
18
18
2C
24
44
42
42
FE
ENDCHAR
STARTCHAR 0395
ENCODING 917
SWIDTH 630 0
DWIDTH 7 0
BBX 5 8 1 0
BITMAP
F8
80
80
F8
80
80
80
F8
ENDCHAR
STARTCHAR 0396
ENCODING 918
SWIDTH 720 0
DWIDTH 8 0
BBX 6 8 1 0
BITMAP
FC
08
18
10
20
40
80
FC
ENDCHAR
STARTCHAR 0397
ENCODING 919
SWIDTH 720 0
DWIDTH 8 0
BBX 6 8 1 0
BITMAP
84
84
84
FC
84
84
84
84
ENDCHAR
STARTCHAR 0398
ENCODING 920
SWIDTH 810 0
DWIDTH 9 0
BBX 7 8 1 0
BITMAP
78
C4
82
BA
82
82
C4
78
ENDCHAR
STARTCHAR 0399
ENCODING 921
SWIDTH 450 0
DWIDTH 5 0
BBX 3 8 1 0
BITMAP
E0
40
40
40
40
40
40
E0
ENDCHAR
STARTCHAR 039A
ENCODING 922
SWIDTH 720 0
DWIDTH 8 0
BBX 6 8 1 0
BITMAP
84
88
90
A0
E0
90
88
84
ENDCHAR
STARTCHAR 039B
ENCODING 923
SWIDTH 720 0
DWIDTH 8 0
BBX 7 8 0 0
BITMAP
18
18
28
24
64
44
42
82
ENDCHAR
STARTCHAR 039C
ENCODING 924
SWIDTH 810 0
DWIDTH 9 0
BBX 7 8 1 0
BITMAP
C6
C6
A6
AA
9A
92
82
82
ENDCHAR
STARTCHAR 039D
ENCODING 925
SWIDTH 720 0
DWIDTH 8 0
BBX 6 8 1 0
BITMAP
C4
E4
A4
B4
94
8C
8C
84
ENDCHAR
STARTCHAR 039E
ENCODING 926
SWIDTH 630 0
DWIDTH 7 0
BBX 6 8 1 0
BITMAP
FC
00
00
F8
00
00
00
FC
ENDCHAR
STARTCHAR 039F
ENCODING 927
SWIDTH 810 0
DWIDTH 9 0
BBX 7 8 1 0
BITMAP
78
C4
82
82
82
82
C4
78
ENDCHAR
STARTCHAR 03A0
ENCODING 928
SWIDTH 720 0
DWIDTH 8 0
BBX 6 8 1 0
BITMAP
FC
84
84
84
84
84
84
84
ENDCHAR
STARTCHAR 03A1
ENCODING 929
SWIDTH 630 0
DWIDTH 7 0
BBX 5 8 1 0
BITMAP
F0
88
88
88
F0
80
80
80
ENDCHAR
STARTCHAR 03A3
ENCODING 931
SWIDTH 630 0
DWIDTH 7 0
BBX 6 8 1 0
BITMAP
FC
C0
60
10
30
60
80
FC
ENDCHAR
STARTCHAR 03A4
ENCODING 932
SWIDTH 630 0
DWIDTH 7 0
BBX 7 8 0 0
BITMAP
FE
10
10
10
10
10
10
10
ENDCHAR
STARTCHAR 03A5
ENCODING 933
SWIDTH 630 0
DWIDTH 7 0
BBX 6 8 0 0
BITMAP
C4
44
28
38
10
10
10
10
ENDCHAR
STARTCHAR 03A6
ENCODING 934
SWIDTH 810 0
DWIDTH 9 0
BBX 7 8 1 0
BITMAP
10
7C
92
92
92
92
7C
10
ENDCHAR
STARTCHAR 03A7
ENCODING 935
SWIDTH 720 0
DWIDTH 8 0
BBX 6 8 1 0
BITMAP
84
C8
50
30
30
50
C8
84
ENDCHAR
STARTCHAR 03A8
ENCODING 936
SWIDTH 900 0
DWIDTH 10 0
BBX 8 8 1 0
BITMAP
91
91
91
91
D2
7C
10
10
ENDCHAR
STARTCHAR 03A9
ENCODING 937
SWIDTH 810 0
DWIDTH 9 0
BBX 7 8 1 0
BITMAP
7C
C6
82
82
82
44
28
EE
ENDCHAR
STARTCHAR 03AA
ENCODING 938
SWIDTH 450 0
DWIDTH 5 0
BBX 3 10 1 0
BITMAP
A0
00
E0
40
40
40
40
40
40
E0
ENDCHAR
STARTCHAR 03AB
ENCODING 939
SWIDTH 630 0
DWIDTH 7 0
BBX 6 10 0 0
BITMAP
28
00
C4
44
28
38
10
10
10
10
ENDCHAR
STARTCHAR 03AC
ENCODING 940
SWIDTH 630 0
DWIDTH 7 0
BBX 5 9 1 0
BITMAP
20
20
00
78
88
88
88
88
F8
ENDCHAR
STARTCHAR 03AD
ENCODING 941
SWIDTH 540 0
DWIDTH 6 0
BBX 4 9 1 0
BITMAP
20
20
00
F0
80
60
80
90
F0
ENDCHAR
STARTCHAR 03AE
ENCODING 942
SWIDTH 630 0
DWIDTH 7 0
BBX 5 11 1 -2
BITMAP
20
20
00
F0
88
88
88
88
88
08
08
ENDCHAR
STARTCHAR 03AF
ENCODING 943
SWIDTH 270 0
DWIDTH 3 0
BBX 1 9 1 0
BITMAP
80
80
00
80
80
80
80
80
80
ENDCHAR
STARTCHAR 03B0
ENCODING 944
SWIDTH 630 0
DWIDTH 7 0
BBX 5 9 1 0
BITMAP
20
A8
00
88
88
88
88
88
70
ENDCHAR
STARTCHAR 03B1
ENCODING 945
SWIDTH 630 0
DWIDTH 7 0
BBX 5 6 1 0
BITMAP
78
88
88
88
88
F8
ENDCHAR
STARTCHAR 03B2
ENCODING 946
SWIDTH 630 0
DWIDTH 7 0
BBX 5 11 1 -2
BITMAP
70
88
88
90
B0
88
88
88
F0
80
80
ENDCHAR
STARTCHAR 03B3
ENCODING 947
SWIDTH 630 0
DWIDTH 7 0
BBX 5 8 1 -2
BITMAP
88
98
90
50
60
20
20
20
ENDCHAR
STARTCHAR 03B4
ENCODING 948
SWIDTH 630 0
DWIDTH 7 0
BBX 5 9 1 0
BITMAP
F8
40
20
70
88
88
88
88
70
ENDCHAR
STARTCHAR 03B5
ENCODING 949
SWIDTH 540 0
DWIDTH 6 0
BBX 4 6 1 0
BITMAP
F0
80
60
80
90
F0
ENDCHAR
STARTCHAR 03B6
ENCODING 950
SWIDTH 450 0
DWIDTH 5 0
BBX 4 11 1 -2
BITMAP
F0
20
40
80
80
80
80
80
F0
10
10
ENDCHAR
STARTCHAR 03B7
ENCODING 951
SWIDTH 630 0
DWIDTH 7 0
BBX 5 8 1 -2
BITMAP
F0
88
88
88
88
88
08
08
ENDCHAR
STARTCHAR 03B8
ENCODING 952
SWIDTH 630 0
DWIDTH 7 0
BBX 5 9 1 0
BITMAP
70
88
88
88
F8
88
88
88
70
ENDCHAR
STARTCHAR 03B9
ENCODING 953
SWIDTH 270 0
DWIDTH 3 0
BBX 1 6 1 0
BITMAP
80
80
80
80
80
80
ENDCHAR
STARTCHAR 03BA
ENCODING 954
SWIDTH 630 0
DWIDTH 7 0
BBX 5 6 1 0
BITMAP
98
B0
E0
E0
90
88
ENDCHAR
STARTCHAR 03BB
ENCODING 955
SWIDTH 630 0
DWIDTH 7 0
BBX 5 9 1 0
BITMAP
40
40
20
20
60
50
90
88
88
ENDCHAR
STARTCHAR 03BC
ENCODING 956
SWIDTH 630 0
DWIDTH 7 0
BBX 5 8 1 -2
BITMAP
88
88
88
88
88
F8
80
80
ENDCHAR
STARTCHAR 03BD
ENCODING 957
SWIDTH 630 0
DWIDTH 7 0
BBX 5 6 1 0
BITMAP
88
88
90
50
60
20
ENDCHAR
STARTCHAR 03BE
ENCODING 958
SWIDTH 540 0
DWIDTH 6 0
BBX 5 11 1 -2
BITMAP
F0
80
80
80
70
80
80
80
F0
08
10
ENDCHAR
STARTCHAR 03BF
ENCODING 959
SWIDTH 630 0
DWIDTH 7 0
BBX 5 6 1 0
BITMAP
70
88
88
88
88
70
ENDCHAR
STARTCHAR 03C0
ENCODING 960
SWIDTH 630 0
DWIDTH 7 0
BBX 5 6 1 0
BITMAP
F8
88
88
88
88
88
ENDCHAR
STARTCHAR 03C1
ENCODING 961
SWIDTH 630 0
DWIDTH 7 0
BBX 5 8 1 -2
BITMAP
70
88
88
88
88
F0
80
80
ENDCHAR
STARTCHAR 03C2
ENCODING 962
SWIDTH 540 0
DWIDTH 6 0
BBX 4 8 1 -2
BITMAP
70
80
80
80
80
70
10
10
ENDCHAR
STARTCHAR 03C3
ENCODING 963
SWIDTH 630 0
DWIDTH 7 0
BBX 6 6 1 0
BITMAP
7C
88
88
88
88
70
ENDCHAR
STARTCHAR 03C4
ENCODING 964
SWIDTH 450 0
DWIDTH 5 0
BBX 5 6 0 0
BITMAP
F8
20
20
20
20
20
ENDCHAR
STARTCHAR 03C5
ENCODING 965
SWIDTH 630 0
DWIDTH 7 0
BBX 5 6 1 0
BITMAP
88
88
88
88
88
70
ENDCHAR
STARTCHAR 03C6
ENCODING 966
SWIDTH 810 0
DWIDTH 9 0
BBX 7 8 1 -2
BITMAP
DC
92
92
92
92
7C
10
10
ENDCHAR
STARTCHAR 03C7
ENCODING 967
SWIDTH 540 0
DWIDTH 6 0
BBX 5 8 1 -2
BITMAP
88
90
50
60
60
50
90
88
ENDCHAR
STARTCHAR 03C8
ENCODING 968
SWIDTH 810 0
DWIDTH 9 0
BBX 7 8 1 -2
BITMAP
92
92
92
92
92
7C
10
10
ENDCHAR
STARTCHAR 03C9
ENCODING 969
SWIDTH 810 0
DWIDTH 9 0
BBX 7 6 1 0
BITMAP
44
92
92
92
92
EC
ENDCHAR
STARTCHAR 03CA
ENCODING 970
SWIDTH 270 0
DWIDTH 3 0
BBX 3 8 0 0
BITMAP
A0
00
40
40
40
40
40
40
ENDCHAR
STARTCHAR 03CB
ENCODING 971
SWIDTH 630 0
DWIDTH 7 0
BBX 5 8 1 0
BITMAP
50
00
88
88
88
88
88
70
ENDCHAR
STARTCHAR 03CC
ENCODING 972
SWIDTH 630 0
DWIDTH 7 0
BBX 5 9 1 0
BITMAP
20
20
00
70
88
88
88
88
70
ENDCHAR
STARTCHAR 03CD
ENCODING 973
SWIDTH 630 0
DWIDTH 7 0
BBX 5 9 1 0
BITMAP
20
20
00
88
88
88
88
88
70
ENDCHAR
STARTCHAR 03CE
ENCODING 974
SWIDTH 810 0
DWIDTH 9 0
BBX 7 9 1 0
BITMAP
10
10
00
44
92
92
92
92
EC
ENDCHAR
STARTCHAR 03D6
ENCODING 982
SWIDTH 720 0
DWIDTH 8 0
BBX 6 6 1 0
BITMAP
FC
48
48
48
48
48
ENDCHAR
STARTCHAR 0401
ENCODING 1025
SWIDTH 630 0
DWIDTH 7 0
BBX 5 10 1 0
BITMAP
48
00
F8
80
80
F8
80
80
80
F8
ENDCHAR
STARTCHAR 0402
ENCODING 1026
SWIDTH 810 0
DWIDTH 9 0
BBX 8 8 0 0
BITMAP
FC
20
20
3E
21
21
21
26
ENDCHAR
STARTCHAR 0403
ENCODING 1027
SWIDTH 540 0
DWIDTH 6 0
BBX 5 11 1 0
BITMAP
10
20
00
F8
80
80
80
80
80
80
80
ENDCHAR
STARTCHAR 0404
ENCODING 1028
SWIDTH 720 0
DWIDTH 8 0
BBX 6 8 1 0
BITMAP
7C
C4
80
F8
80
80
C4
7C
ENDCHAR
STARTCHAR 0405
ENCODING 1029
SWIDTH 720 0
DWIDTH 8 0
BBX 6 8 1 0
BITMAP
78
84
80
E0
1C
04
8C
F8
ENDCHAR
STARTCHAR 0406
ENCODING 1030
SWIDTH 450 0
DWIDTH 5 0
BBX 3 8 1 0
BITMAP
E0
40
40
40
40
40
40
E0
ENDCHAR
STARTCHAR 0407
ENCODING 1031
SWIDTH 450 0
DWIDTH 5 0
BBX 3 10 1 0
BITMAP
A0
00
E0
40
40
40
40
40
40
E0
ENDCHAR
STARTCHAR 0408
ENCODING 1032
SWIDTH 450 0
DWIDTH 5 0
BBX 4 8 0 0
BITMAP
70
10
10
10
10
10
10
E0
ENDCHAR
STARTCHAR 0409
ENCODING 1033
SWIDTH 1080 0
DWIDTH 12 0
BBX 12 8 0 0
BITMAP
3E00
2200
2200
23E0
2230
2210
4230
C3E0
ENDCHAR
STARTCHAR 040A
ENCODING 1034
SWIDTH 1080 0
DWIDTH 12 0
BBX 11 8 1 0
BITMAP
8400
8400
8400
FFC0
8460
8420
8440
87C0
ENDCHAR
STARTCHAR 040B
ENCODING 1035
SWIDTH 810 0
DWIDTH 9 0
BBX 8 8 0 0
BITMAP
FC
20
20
3E
21
21
21
21
ENDCHAR
STARTCHAR 040C
ENCODING 1036
SWIDTH 720 0
DWIDTH 8 0
BBX 6 11 1 0
BITMAP
10
20
00
8C
90
90
E0
B0
98
88
84
ENDCHAR
STARTCHAR 040D
ENCODING 1037
SWIDTH 720 0
DWIDTH 8 0
BBX 6 11 1 0
BITMAP
20
10
00
84
8C
8C
94
A4
A4
C4
84
ENDCHAR
STARTCHAR 040E
ENCODING 1038
SWIDTH 630 0
DWIDTH 7 0
BBX 7 11 0 0
BITMAP
68
38
00
86
44
44
28
28
10
10
60
ENDCHAR
STARTCHAR 040F
ENCODING 1039
SWIDTH 720 0
DWIDTH 8 0
BBX 6 10 1 -2
BITMAP
84
84
84
84
84
84
84
FC
10
10
ENDCHAR
STARTCHAR 0410
ENCODING 1040
SWIDTH 720 0
DWIDTH 8 0
BBX 7 8 0 0
BITMAP
18
18
28
24
64
7C
42
82
ENDCHAR
STARTCHAR 0411
ENCODING 1041
SWIDTH 720 0
DWIDTH 8 0
BBX 6 8 1 0
BITMAP
F8
80
80
F8
84
84
84
F8
ENDCHAR
STARTCHAR 0412
ENCODING 1042
SWIDTH 720 0
DWIDTH 8 0
BBX 6 8 1 0
BITMAP
F8
88
88
F8
84
84
84
F8
ENDCHAR
STARTCHAR 0413
ENCODING 1043
SWIDTH 540 0
DWIDTH 6 0
BBX 5 8 1 0
BITMAP
F8
80
80
80
80
80
80
80
ENDCHAR
STARTCHAR 0414
ENCODING 1044
SWIDTH 720 0
DWIDTH 8 0
BBX 8 10 0 -2
BITMAP
3E
22
22
22
22
42
42
FF
81
81
ENDCHAR
STARTCHAR 0415
ENCODING 1045
SWIDTH 630 0
DWIDTH 7 0
BBX 5 8 1 0
BITMAP
F8
80
80
F8
80
80
80
F8
ENDCHAR
STARTCHAR 0416
ENCODING 1046
SWIDTH 990 0
DWIDTH 11 0
BBX 10 8 0 0
BITMAP
E4C0
2480
3500
1E00
1500
2580
4480
4440
ENDCHAR
STARTCHAR 0417
ENCODING 1047
SWIDTH 630 0
DWIDTH 7 0
BBX 6 8 0 0
BITMAP
78
44
04
38
04
04
84
78
ENDCHAR
STARTCHAR 0418
ENCODING 1048
SWIDTH 720 0
DWIDTH 8 0
BBX 6 8 1 0
BITMAP
84
8C
8C
94
A4
A4
C4
84
ENDCHAR
STARTCHAR 0419
ENCODING 1049
SWIDTH 720 0
DWIDTH 8 0
BBX 6 11 1 0
BITMAP
48
38
00
84
8C
8C
94
A4
A4
C4
84
ENDCHAR
STARTCHAR 041A
ENCODING 1050
SWIDTH 720 0
DWIDTH 8 0
BBX 6 8 1 0
BITMAP
8C
90
90
E0
B0
98
88
84
ENDCHAR
STARTCHAR 041B
ENCODING 1051
SWIDTH 720 0
DWIDTH 8 0
BBX 7 8 0 0
BITMAP
3E
22
22
22
22
22
42
C2
ENDCHAR
STARTCHAR 041C
ENCODING 1052
SWIDTH 810 0
DWIDTH 9 0
BBX 7 8 1 0
BITMAP
C6
C6
A6
AA
9A
92
82
82
ENDCHAR
STARTCHAR 041D
ENCODING 1053
SWIDTH 720 0
DWIDTH 8 0
BBX 6 8 1 0
BITMAP
84
84
84
FC
84
84
84
84
ENDCHAR
STARTCHAR 041E
ENCODING 1054
SWIDTH 810 0
DWIDTH 9 0
BBX 7 8 1 0
BITMAP
78
C4
82
82
82
82
C4
78
ENDCHAR
STARTCHAR 041F
ENCODING 1055
SWIDTH 720 0
DWIDTH 8 0
BBX 6 8 1 0
BITMAP
FC
84
84
84
84
84
84
84
ENDCHAR
STARTCHAR 0420
ENCODING 1056
SWIDTH 630 0
DWIDTH 7 0
BBX 5 8 1 0
BITMAP
F0
88
88
88
F0
80
80
80
ENDCHAR
STARTCHAR 0421
ENCODING 1057
SWIDTH 720 0
DWIDTH 8 0
BBX 6 8 1 0
BITMAP
7C
C4
80
80
80
80
C4
7C
ENDCHAR
STARTCHAR 0422
ENCODING 1058
SWIDTH 630 0
DWIDTH 7 0
BBX 7 8 0 0
BITMAP
FE
10
10
10
10
10
10
10
ENDCHAR
STARTCHAR 0423
ENCODING 1059
SWIDTH 630 0
DWIDTH 7 0
BBX 7 8 0 0
BITMAP
86
44
44
28
28
10
10
60
ENDCHAR
STARTCHAR 0424
ENCODING 1060
SWIDTH 810 0
DWIDTH 9 0
BBX 7 8 1 0
BITMAP
10
7C
92
92
92
92
7C
10
ENDCHAR
STARTCHAR 0425
ENCODING 1061
SWIDTH 720 0
DWIDTH 8 0
BBX 6 8 1 0
BITMAP
84
C8
50
30
30
50
C8
84
ENDCHAR
STARTCHAR 0426
ENCODING 1062
SWIDTH 720 0
DWIDTH 8 0
BBX 7 10 1 -2
BITMAP
84
84
84
84
84
84
84
FE
02
02
ENDCHAR
STARTCHAR 0427
ENCODING 1063
SWIDTH 720 0
DWIDTH 8 0
BBX 6 8 1 0
BITMAP
84
84
84
84
7C
04
04
04
ENDCHAR
STARTCHAR 0428
ENCODING 1064
SWIDTH 990 0
DWIDTH 11 0
BBX 9 8 1 0
BITMAP
8880
8880
8880
8880
8880
8880
8880
FF80
ENDCHAR
STARTCHAR 0429
ENCODING 1065
SWIDTH 1080 0
DWIDTH 12 0
BBX 10 10 1 -2
BITMAP
8880
8880
8880
8880
8880
8880
8880
FFC0
0040
0040
ENDCHAR
STARTCHAR 042A
ENCODING 1066
SWIDTH 810 0
DWIDTH 9 0
BBX 8 8 0 0
BITMAP
E0
20
20
3E
21
21
21
3E
ENDCHAR
STARTCHAR 042B
ENCODING 1067
SWIDTH 900 0
DWIDTH 10 0
BBX 8 8 1 0
BITMAP
81
81
81
F9
85
85
85
F9
ENDCHAR
STARTCHAR 042C
ENCODING 1068
SWIDTH 630 0
DWIDTH 7 0
BBX 6 8 1 0
BITMAP
80
80
80
F8
84
84
84
F8
ENDCHAR
STARTCHAR 042D
ENCODING 1069
SWIDTH 720 0
DWIDTH 8 0
BBX 6 8 1 0
BITMAP
F0
88
04
7C
04
04
88
F0
ENDCHAR
STARTCHAR 042E
ENCODING 1070
SWIDTH 990 0
DWIDTH 11 0
BBX 10 8 1 0
BITMAP
8F00
9080
90C0
F040
B040
90C0
9880
8F00
ENDCHAR
STARTCHAR 042F
ENCODING 1071
SWIDTH 720 0
DWIDTH 8 0
BBX 6 8 1 0
BITMAP
7C
C4
84
C4
7C
64
C4
84
ENDCHAR
STARTCHAR 0430
ENCODING 1072
SWIDTH 630 0
DWIDTH 7 0
BBX 5 6 1 0
BITMAP
F0
08
78
88
98
E8
ENDCHAR
STARTCHAR 0431
ENCODING 1073
SWIDTH 630 0
DWIDTH 7 0
BBX 5 9 1 0
BITMAP
38
C0
80
F0
88
88
88
88
70
ENDCHAR
STARTCHAR 0432
ENCODING 1074
SWIDTH 630 0
DWIDTH 7 0
BBX 5 6 1 0
BITMAP
F0
88
F0
88
88
F0
ENDCHAR
STARTCHAR 0433
ENCODING 1075
SWIDTH 450 0
DWIDTH 5 0
BBX 4 6 1 0
BITMAP
F0
80
80
80
80
80
ENDCHAR
STARTCHAR 0434
ENCODING 1076
SWIDTH 630 0
DWIDTH 7 0
BBX 6 7 0 -1
BITMAP
3C
24
24
44
44
FC
84
ENDCHAR
STARTCHAR 0435
ENCODING 1077
SWIDTH 630 0
DWIDTH 7 0
BBX 5 6 1 0
BITMAP
70
88
F8
80
88
78
ENDCHAR
STARTCHAR 0436
ENCODING 1078
SWIDTH 810 0
DWIDTH 9 0
BBX 8 6 0 0
BITMAP
CB
2A
3C
2A
4A
49
ENDCHAR
STARTCHAR 0437
ENCODING 1079
SWIDTH 540 0
DWIDTH 6 0
BBX 5 6 0 0
BITMAP
78
08
30
08
08
F0
ENDCHAR
STARTCHAR 0438
ENCODING 1080
SWIDTH 630 0
DWIDTH 7 0
BBX 5 6 1 0
BITMAP
88
98
A8
A8
C8
88
ENDCHAR
STARTCHAR 0439
ENCODING 1081
SWIDTH 630 0
DWIDTH 7 0
BBX 5 9 1 0
BITMAP
50
70
00
88
98
A8
A8
C8
88
ENDCHAR
STARTCHAR 043A
ENCODING 1082
SWIDTH 630 0
DWIDTH 7 0
BBX 5 6 1 0
BITMAP
98
A0
E0
A0
90
88
ENDCHAR
STARTCHAR 043B
ENCODING 1083
SWIDTH 630 0
DWIDTH 7 0
BBX 6 6 0 0
BITMAP
3C
24
24
44
44
C4
ENDCHAR
STARTCHAR 043C
ENCODING 1084
SWIDTH 720 0
DWIDTH 8 0
BBX 6 6 1 0
BITMAP
8C
CC
B4
A4
84
84
ENDCHAR
STARTCHAR 043D
ENCODING 1085
SWIDTH 630 0
DWIDTH 7 0
BBX 5 6 1 0
BITMAP
88
88
F8
88
88
88
ENDCHAR
STARTCHAR 043E
ENCODING 1086
SWIDTH 630 0
DWIDTH 7 0
BBX 5 6 1 0
BITMAP
70
88
88
88
88
70
ENDCHAR
STARTCHAR 043F
ENCODING 1087
SWIDTH 630 0
DWIDTH 7 0
BBX 5 6 1 0
BITMAP
F8
88
88
88
88
88
ENDCHAR
STARTCHAR 0440
ENCODING 1088
SWIDTH 630 0
DWIDTH 7 0
BBX 5 8 1 -2
BITMAP
F0
88
88
88
88
F0
80
80
ENDCHAR
STARTCHAR 0441
ENCODING 1089
SWIDTH 540 0
DWIDTH 6 0
BBX 4 6 1 0
BITMAP
70
90
80
80
90
70
ENDCHAR
STARTCHAR 0442
ENCODING 1090
SWIDTH 450 0
DWIDTH 5 0
BBX 5 6 0 0
BITMAP
F8
20
20
20
20
20
ENDCHAR
STARTCHAR 0443
ENCODING 1091
SWIDTH 630 0
DWIDTH 7 0
BBX 5 8 1 -2
BITMAP
88
98
90
50
60
20
40
40
ENDCHAR
STARTCHAR 0444
ENCODING 1092
SWIDTH 810 0
DWIDTH 9 0
BBX 8 11 1 -2
BITMAP
10
10
10
7E
92
91
91
92
7E
10
10
ENDCHAR
STARTCHAR 0445
ENCODING 1093
SWIDTH 630 0
DWIDTH 7 0
BBX 5 6 1 0
BITMAP
88
50
60
60
50
88
ENDCHAR
STARTCHAR 0446
ENCODING 1094
SWIDTH 630 0
DWIDTH 7 0
BBX 6 7 1 -1
BITMAP
88
88
88
88
88
FC
04
ENDCHAR
STARTCHAR 0447
ENCODING 1095
SWIDTH 630 0
DWIDTH 7 0
BBX 5 6 1 0
BITMAP
88
88
88
F8
08
08
ENDCHAR
STARTCHAR 0448
ENCODING 1096
SWIDTH 900 0
DWIDTH 10 0
BBX 8 6 1 0
BITMAP
91
91
91
91
91
FF
ENDCHAR
STARTCHAR 0449
ENCODING 1097
SWIDTH 900 0
DWIDTH 10 0
BBX 8 7 1 -1
BITMAP
91
91
91
91
91
FF
01
ENDCHAR
STARTCHAR 044A
ENCODING 1098
SWIDTH 630 0
DWIDTH 7 0
BBX 7 6 0 0
BITMAP
E0
20
3C
26
24
3C
ENDCHAR
STARTCHAR 044B
ENCODING 1099
SWIDTH 810 0
DWIDTH 9 0
BBX 7 6 1 0
BITMAP
82
82
F2
8A
8A
F2
ENDCHAR
STARTCHAR 044C
ENCODING 1100
SWIDTH 540 0
DWIDTH 6 0
BBX 5 6 1 0
BITMAP
80
80
F0
88
88
F0
ENDCHAR
STARTCHAR 044D
ENCODING 1101
SWIDTH 540 0
DWIDTH 6 0
BBX 5 6 0 0
BITMAP
70
88
78
08
88
70
ENDCHAR
STARTCHAR 044E
ENCODING 1102
SWIDTH 810 0
DWIDTH 9 0
BBX 8 6 1 0
BITMAP
9E
B2
E1
A1
92
9E
ENDCHAR
STARTCHAR 044F
ENCODING 1103
SWIDTH 630 0
DWIDTH 7 0
BBX 5 6 1 0
BITMAP
F8
88
88
78
48
88
ENDCHAR
STARTCHAR 0451
ENCODING 1105
SWIDTH 630 0
DWIDTH 7 0
BBX 5 8 1 0
BITMAP
50
00
70
88
F8
80
88
78
ENDCHAR
STARTCHAR 0452
ENCODING 1106
SWIDTH 630 0
DWIDTH 7 0
BBX 6 11 0 -2
BITMAP
40
F0
40
78
44
44
44
44
44
08
10
ENDCHAR
STARTCHAR 0453
ENCODING 1107
SWIDTH 450 0
DWIDTH 5 0
BBX 4 9 1 0
BITMAP
20
20
00
F0
80
80
80
80
80
ENDCHAR
STARTCHAR 0454
ENCODING 1108
SWIDTH 540 0
DWIDTH 6 0
BBX 5 6 1 0
BITMAP
70
88
F0
80
88
78
ENDCHAR
STARTCHAR 0455
ENCODING 1109
SWIDTH 540 0
DWIDTH 6 0
BBX 4 6 1 0
BITMAP
F0
90
C0
30
90
F0
ENDCHAR
STARTCHAR 0456
ENCODING 1110
SWIDTH 270 0
DWIDTH 3 0
BBX 1 9 1 0
BITMAP
80
00
00
80
80
80
80
80
80
ENDCHAR
STARTCHAR 0457
ENCODING 1111
SWIDTH 270 0
DWIDTH 3 0
BBX 3 8 0 0
BITMAP
A0
00
40
40
40
40
40
40
ENDCHAR
STARTCHAR 0458
ENCODING 1112
SWIDTH 360 0
DWIDTH 4 0
BBX 3 11 0 -2
BITMAP
20
00
00
60
20
20
20
20
20
20
C0
ENDCHAR
STARTCHAR 0459
ENCODING 1113
SWIDTH 900 0
DWIDTH 10 0
BBX 10 6 0 0
BITMAP
3C00
2400
2780
44C0
44C0
C780
ENDCHAR
STARTCHAR 045A
ENCODING 1114
SWIDTH 900 0
DWIDTH 10 0
BBX 9 6 1 0
BITMAP
8800
8800
FF00
8980
8980
8F00
ENDCHAR
STARTCHAR 045B
ENCODING 1115
SWIDTH 630 0
DWIDTH 7 0
BBX 6 9 0 0
BITMAP
40
F0
40
78
44
44
44
44
44
ENDCHAR
STARTCHAR 045C
ENCODING 1116
SWIDTH 630 0
DWIDTH 7 0
BBX 5 9 1 0
BITMAP
10
20
00
98
A0
E0
A0
90
88
ENDCHAR
STARTCHAR 045D
ENCODING 1117
SWIDTH 630 0
DWIDTH 7 0
BBX 5 9 1 0
BITMAP
60
20
00
88
98
A8
A8
C8
88
ENDCHAR
STARTCHAR 045E
ENCODING 1118
SWIDTH 630 0
DWIDTH 7 0
BBX 5 11 1 -2
BITMAP
90
70
00
88
98
90
50
60
20
40
40
ENDCHAR
STARTCHAR 045F
ENCODING 1119
SWIDTH 630 0
DWIDTH 7 0
BBX 5 8 1 -2
BITMAP
88
88
88
88
88
F8
20
20
ENDCHAR
STARTCHAR 0478
ENCODING 1144
SWIDTH 1170 0
DWIDTH 13 0
BBX 12 10 1 -2
BITMAP
7800
C800
8510
8520
84A0
84A0
C8C0
7840
0040
0080
ENDCHAR
STARTCHAR 0479
ENCODING 1145
SWIDTH 990 0
DWIDTH 11 0
BBX 10 8 1 -2
BITMAP
7440
9240
8A80
8A80
9180
7100
0100
0300
ENDCHAR
STARTCHAR 047C
ENCODING 1148
SWIDTH 990 0
DWIDTH 11 0
BBX 9 12 1 0
BITMAP
1800
2E00
0800
0800
7700
9080
8080
8080
8080
8080
8980
7700
ENDCHAR
STARTCHAR 047D
ENCODING 1149
SWIDTH 810 0
DWIDTH 9 0
BBX 7 10 1 0
BITMAP
30
5C
10
10
EE
82
82
82
92
EE
ENDCHAR
STARTCHAR 0487
ENCODING 1159
SWIDTH 630 0
DWIDTH 7 0
BBX 5 2 1 7
BITMAP
60
B8
ENDCHAR
STARTCHAR 0490
ENCODING 1168
SWIDTH 540 0
DWIDTH 6 0
BBX 5 10 1 0
BITMAP
08
08
F8
80
80
80
80
80
80
80
ENDCHAR
STARTCHAR 0491
ENCODING 1169
SWIDTH 450 0
DWIDTH 5 0
BBX 4 8 1 0
BITMAP
10
10
F0
80
80
80
80
80
ENDCHAR
STARTCHAR 0492
ENCODING 1170
SWIDTH 540 0
DWIDTH 6 0
BBX 6 8 0 0
BITMAP
7C
40
40
F0
40
40
40
40
ENDCHAR
STARTCHAR 0493
ENCODING 1171
SWIDTH 450 0
DWIDTH 5 0
BBX 5 6 0 0
BITMAP
78
40
40
F0
40
40
ENDCHAR
STARTCHAR 0496
ENCODING 1174
SWIDTH 990 0
DWIDTH 11 0
BBX 11 10 0 -2
BITMAP
E4C0
2480
3500
1E00
1500
2580
4480
4460
0020
0020
ENDCHAR
STARTCHAR 0497
ENCODING 1175
SWIDTH 810 0
DWIDTH 9 0
BBX 9 7 0 -1
BITMAP
CB00
2A00
3C00
2A00
4B00
4980
0080
ENDCHAR
STARTCHAR 049A
ENCODING 1178
SWIDTH 720 0
DWIDTH 8 0
BBX 7 10 1 -2
BITMAP
8C
90
90
E0
B0
90
88
86
06
06
ENDCHAR
STARTCHAR 049B
ENCODING 1179
SWIDTH 630 0
DWIDTH 7 0
BBX 5 7 1 -1
BITMAP
98
B0
E0
A0
90
88
08
ENDCHAR
STARTCHAR 049C
ENCODING 1180
SWIDTH 720 0
DWIDTH 8 0
BBX 6 8 1 0
BITMAP
8C
B0
B0
E0
B0
B0
88
84
ENDCHAR
STARTCHAR 049D
ENCODING 1181
SWIDTH 630 0
DWIDTH 7 0
BBX 5 6 1 0
BITMAP
D8
B0
E0
A0
D0
88
ENDCHAR
STARTCHAR 04A2
ENCODING 1186
SWIDTH 720 0
DWIDTH 8 0
BBX 7 10 1 -2
BITMAP
84
84
84
FC
84
84
84
86
02
02
ENDCHAR
STARTCHAR 04A3
ENCODING 1187
SWIDTH 630 0
DWIDTH 7 0
BBX 6 7 1 -1
BITMAP
88
88
F8
88
88
8C
04
ENDCHAR
STARTCHAR 04A8
ENCODING 1192
SWIDTH 810 0
DWIDTH 9 0
BBX 8 8 1 0
BITMAP
70
CC
92
92
92
92
DC
7F
ENDCHAR
STARTCHAR 04A9
ENCODING 1193
SWIDTH 630 0
DWIDTH 7 0
BBX 6 6 1 0
BITMAP
60
B8
A8
A8
A8
7C
ENDCHAR
STARTCHAR 04AC
ENCODING 1196
SWIDTH 630 0
DWIDTH 7 0
BBX 7 10 0 -2
BITMAP
FE
10
10
10
10
10
10
18
08
08
ENDCHAR
STARTCHAR 04AD
ENCODING 1197
SWIDTH 450 0
DWIDTH 5 0
BBX 5 7 0 -1
BITMAP
F8
20
20
20
20
30
10
ENDCHAR
STARTCHAR 04AE
ENCODING 1198
SWIDTH 630 0
DWIDTH 7 0
BBX 6 8 0 0
BITMAP
C4
44
28
38
10
10
10
10
ENDCHAR
STARTCHAR 04AF
ENCODING 1199
SWIDTH 630 0
DWIDTH 7 0
BBX 5 8 1 -2
BITMAP
88
98
90
50
60
20
20
20
ENDCHAR
STARTCHAR 04B0
ENCODING 1200
SWIDTH 630 0
DWIDTH 7 0
BBX 6 8 0 0
BITMAP
C4
44
28
38
10
7C
10
10
ENDCHAR
STARTCHAR 04B1
ENCODING 1201
SWIDTH 630 0
DWIDTH 7 0
BBX 5 8 1 -2
BITMAP
88
88
90
50
60
20
F8
20
ENDCHAR
STARTCHAR 04B2
ENCODING 1202
SWIDTH 720 0
DWIDTH 8 0
BBX 6 10 1 -2
BITMAP
84
C8
50
30
30
50
C8
84
04
04
ENDCHAR
STARTCHAR 04B3
ENCODING 1203
SWIDTH 630 0
DWIDTH 7 0
BBX 5 7 1 -1
BITMAP
88
D0
60
60
D0
88
08
ENDCHAR
STARTCHAR 04B4
ENCODING 1204
SWIDTH 900 0
DWIDTH 10 0
BBX 10 10 0 -2
BITMAP
FE80
1080
1080
1080
1080
1080
1080
1FC0
0040
0040
ENDCHAR
STARTCHAR 04B5
ENCODING 1205
SWIDTH 720 0
DWIDTH 8 0
BBX 8 7 0 -1
BITMAP
FA
22
22
22
22
3F
01
ENDCHAR
STARTCHAR 04B8
ENCODING 1208
SWIDTH 720 0
DWIDTH 8 0
BBX 6 8 1 0
BITMAP
84
84
A4
A4
7C
24
24
04
ENDCHAR
STARTCHAR 04B9
ENCODING 1209
SWIDTH 630 0
DWIDTH 7 0
BBX 5 6 1 0
BITMAP
88
A8
A8
F8
28
08
ENDCHAR
STARTCHAR 04BA
ENCODING 1210
SWIDTH 720 0
DWIDTH 8 0
BBX 6 8 1 0
BITMAP
80
80
80
F8
84
84
84
84
ENDCHAR
STARTCHAR 04BB
ENCODING 1211
SWIDTH 630 0
DWIDTH 7 0
BBX 5 9 1 0
BITMAP
80
80
80
F0
88
88
88
88
88
ENDCHAR
STARTCHAR 04BC
ENCODING 1212
SWIDTH 900 0
DWIDTH 10 0
BBX 9 8 0 0
BITMAP
1F00
3100
A080
7F80
2000
2000
1080
0F00
ENDCHAR
STARTCHAR 04BD
ENCODING 1213
SWIDTH 720 0
DWIDTH 8 0
BBX 7 6 0 0
BITMAP
1C
A2
7E
20
20
1E
ENDCHAR
STARTCHAR 04BE
ENCODING 1214
SWIDTH 900 0
DWIDTH 10 0
BBX 9 10 0 -2
BITMAP
1F00
3100
A080
7F80
2000
2000
1080
0F00
0400
0400
ENDCHAR
STARTCHAR 04BF
ENCODING 1215
SWIDTH 720 0
DWIDTH 8 0
BBX 7 8 0 -2
BITMAP
1C
A2
7E
20
20
1E
08
08
ENDCHAR
STARTCHAR 04D8
ENCODING 1240
SWIDTH 720 0
DWIDTH 8 0
BBX 7 8 1 0
BITMAP
78
84
06
FE
82
84
C4
78
ENDCHAR
STARTCHAR 04D9
ENCODING 1241
SWIDTH 630 0
DWIDTH 7 0
BBX 5 6 1 0
BITMAP
F0
98
08
F8
88
F0
ENDCHAR
STARTCHAR 04E8
ENCODING 1256
SWIDTH 810 0
DWIDTH 9 0
BBX 7 8 1 0
BITMAP
78
C4
82
FE
82
82
C4
78
ENDCHAR
STARTCHAR 04E9
ENCODING 1257
SWIDTH 630 0
DWIDTH 7 0
BBX 5 6 1 0
BITMAP
70
88
F8
88
88
70
ENDCHAR
STARTCHAR 04F6
ENCODING 1270
SWIDTH 540 0
DWIDTH 6 0
BBX 5 10 1 -2
BITMAP
F8
80
80
80
80
80
80
C0
40
40
ENDCHAR
STARTCHAR 04F7
ENCODING 1271
SWIDTH 450 0
DWIDTH 5 0
BBX 4 7 1 -1
BITMAP
F0
80
80
80
80
C0
40
ENDCHAR
STARTCHAR 051A
ENCODING 1306
SWIDTH 810 0
DWIDTH 9 0
BBX 7 10 1 -2
BITMAP
78
C4
82
82
82
82
C4
78
08
0E
ENDCHAR
STARTCHAR 051B
ENCODING 1307
SWIDTH 630 0
DWIDTH 7 0
BBX 5 8 1 -2
BITMAP
78
88
88
88
88
F8
08
08
ENDCHAR
STARTCHAR 051C
ENCODING 1308
SWIDTH 990 0
DWIDTH 11 0
BBX 9 8 1 0
BITMAP
8880
8880
9480
9500
5500
6500
6300
6200
ENDCHAR
STARTCHAR 051D
ENCODING 1309
SWIDTH 810 0
DWIDTH 9 0
BBX 7 6 1 0
BITMAP
92
92
AA
AA
4C
44
ENDCHAR
STARTCHAR 0531
ENCODING 1329
SWIDTH 720 0
DWIDTH 8 0
BBX 7 8 1 0
BITMAP
84
84
84
84
84
84
CE
7A
ENDCHAR
STARTCHAR 0532
ENCODING 1330
SWIDTH 720 0
DWIDTH 8 0
BBX 6 8 1 0
BITMAP
78
CC
84
84
80
FC
80
80
ENDCHAR
STARTCHAR 0533
ENCODING 1331
SWIDTH 720 0
DWIDTH 8 0
BBX 8 8 0 0
BITMAP
38
44
C2
C2
42
3F
02
02
ENDCHAR
STARTCHAR 0534
ENCODING 1332
SWIDTH 720 0
DWIDTH 8 0
BBX 8 8 0 0
BITMAP
38
44
84
84
04
07
04
04
ENDCHAR
STARTCHAR 0535
ENCODING 1333
SWIDTH 720 0
DWIDTH 8 0
BBX 6 8 1 0
BITMAP
80
80
FC
80
84
84
CC
78
ENDCHAR
STARTCHAR 0536
ENCODING 1334
SWIDTH 720 0
DWIDTH 8 0
BBX 6 8 1 0
BITMAP
F0
8C
04
04
04
08
90
FC
ENDCHAR
STARTCHAR 0537
ENCODING 1335
SWIDTH 630 0
DWIDTH 7 0
BBX 6 8 1 0
BITMAP
80
80
FC
80
80
80
80
F8
ENDCHAR
STARTCHAR 0538
ENCODING 1336
SWIDTH 720 0
DWIDTH 8 0
BBX 6 8 1 0
BITMAP
78
CC
84
84
80
80
80
FC
ENDCHAR
STARTCHAR 0539
ENCODING 1337
SWIDTH 810 0
DWIDTH 9 0
BBX 8 8 1 0
BITMAP
7C
C6
82
9F
B2
B2
9C
80
ENDCHAR
STARTCHAR 053A
ENCODING 1338
SWIDTH 720 0
DWIDTH 8 0
BBX 8 8 0 0
BITMAP
02
02
3F
42
C2
C2
44
38
ENDCHAR
STARTCHAR 053B
ENCODING 1339
SWIDTH 630 0
DWIDTH 7 0
BBX 6 8 1 0
BITMAP
80
80
F8
8C
84
84
80
80
ENDCHAR
STARTCHAR 053C
ENCODING 1340
SWIDTH 540 0
DWIDTH 6 0
BBX 5 8 1 0
BITMAP
80
80
80
80
80
80
80
F8
ENDCHAR
STARTCHAR 053D
ENCODING 1341
SWIDTH 810 0
DWIDTH 9 0
BBX 8 8 1 0
BITMAP
80
80
F1
91
91
93
8E
80
ENDCHAR
STARTCHAR 053E
ENCODING 1342
SWIDTH 810 0
DWIDTH 9 0
BBX 7 8 1 0
BITMAP
9E
F2
4C
86
82
82
C4
78
ENDCHAR
STARTCHAR 053F
ENCODING 1343
SWIDTH 720 0
DWIDTH 8 0
BBX 6 8 1 0
BITMAP
80
80
84
84
84
7C
04
04
ENDCHAR
STARTCHAR 0540
ENCODING 1344
SWIDTH 540 0
DWIDTH 6 0
BBX 6 8 0 0
BITMAP
78
08
08
F0
08
0C
0C
0C
ENDCHAR
STARTCHAR 0541
ENCODING 1345
SWIDTH 720 0
DWIDTH 8 0
BBX 7 8 0 0
BITMAP
78
44
02
02
02
7C
8C
7A
ENDCHAR
STARTCHAR 0542
ENCODING 1346
SWIDTH 720 0
DWIDTH 8 0
BBX 8 8 0 0
BITMAP
38
44
46
C6
06
06
06
07
ENDCHAR
STARTCHAR 0543
ENCODING 1347
SWIDTH 720 0
DWIDTH 8 0
BBX 6 8 1 0
BITMAP
1C
20
F0
58
84
84
84
FC
ENDCHAR
STARTCHAR 0544
ENCODING 1348
SWIDTH 720 0
DWIDTH 8 0
BBX 7 8 1 0
BITMAP
86
84
84
84
84
84
C4
78
ENDCHAR
STARTCHAR 0545
ENCODING 1349
SWIDTH 630 0
DWIDTH 7 0
BBX 6 8 1 0
BITMAP
F8
88
08
F8
0C
04
8C
F8
ENDCHAR
STARTCHAR 0546
ENCODING 1350
SWIDTH 720 0
DWIDTH 8 0
BBX 7 8 0 0
BITMAP
C0
40
40
40
42
42
62
3C
ENDCHAR
STARTCHAR 0547
ENCODING 1351
SWIDTH 720 0
DWIDTH 8 0
BBX 6 8 1 0
BITMAP
E0
38
44
80
80
80
C4
7C
ENDCHAR
STARTCHAR 0548
ENCODING 1352
SWIDTH 720 0
DWIDTH 8 0
BBX 6 8 1 0
BITMAP
78
C4
84
84
84
84
84
84
ENDCHAR
STARTCHAR 0549
ENCODING 1353
SWIDTH 630 0
DWIDTH 7 0
BBX 7 9 0 -1
BITMAP
78
84
06
02
06
04
48
30
08
ENDCHAR
STARTCHAR 054A
ENCODING 1354
SWIDTH 810 0
DWIDTH 9 0
BBX 8 8 0 0
BITMAP
3C
5A
D9
99
19
19
01
01
ENDCHAR
STARTCHAR 054B
ENCODING 1355
SWIDTH 720 0
DWIDTH 8 0
BBX 6 8 1 0
BITMAP
78
8C
84
C4
74
0C
88
FC
ENDCHAR
STARTCHAR 054C
ENCODING 1356
SWIDTH 720 0
DWIDTH 8 0
BBX 7 8 1 0
BITMAP
78
C4
84
84
84
86
84
84
ENDCHAR
STARTCHAR 054D
ENCODING 1357
SWIDTH 720 0
DWIDTH 8 0
BBX 6 8 1 0
BITMAP
84
84
84
84
84
84
CC
78
ENDCHAR
STARTCHAR 054E
ENCODING 1358
SWIDTH 720 0
DWIDTH 8 0
BBX 8 8 0 0
BITMAP
04
04
C4
C4
44
3C
04
07
ENDCHAR
STARTCHAR 054F
ENCODING 1359
SWIDTH 720 0
DWIDTH 8 0
BBX 6 8 1 0
BITMAP
78
84
80
E0
1C
04
8C
F8
ENDCHAR
STARTCHAR 0550
ENCODING 1360
SWIDTH 630 0
DWIDTH 7 0
BBX 6 8 1 0
BITMAP
78
CC
84
84
80
80
80
80
ENDCHAR
STARTCHAR 0551
ENCODING 1361
SWIDTH 720 0
DWIDTH 8 0
BBX 6 8 1 0
BITMAP
78
8C
88
F8
84
04
84
F8
ENDCHAR
STARTCHAR 0552
ENCODING 1362
SWIDTH 540 0
DWIDTH 6 0
BBX 5 8 1 0
BITMAP
80
80
F8
80
80
80
80
80
ENDCHAR
STARTCHAR 0553
ENCODING 1363
SWIDTH 810 0
DWIDTH 9 0
BBX 7 8 1 0
BITMAP
10
7C
92
92
92
92
7C
10
ENDCHAR
STARTCHAR 0554
ENCODING 1364
SWIDTH 720 0
DWIDTH 8 0
BBX 7 8 0 0
BITMAP
3C
22
42
62
5C
40
FE
40
ENDCHAR
STARTCHAR 0555
ENCODING 1365
SWIDTH 810 0
DWIDTH 9 0
BBX 7 8 1 0
BITMAP
78
C4
82
82
82
82
C4
78
ENDCHAR
STARTCHAR 0556
ENCODING 1366
SWIDTH 810 0
DWIDTH 9 0
BBX 7 8 1 0
BITMAP
70
90
90
7C
12
12
92
FC
ENDCHAR
STARTCHAR 0559
ENCODING 1369
SWIDTH 270 0
DWIDTH 3 0
BBX 2 3 0 6
BITMAP
40
40
80
ENDCHAR
STARTCHAR 055A
ENCODING 1370
SWIDTH 180 0
DWIDTH 2 0
BBX 2 3 0 6
BITMAP
40
40
80
ENDCHAR
STARTCHAR 055B
ENCODING 1371
SWIDTH 180 0
DWIDTH 2 0
BBX 2 2 -1 7
BITMAP
40
80
ENDCHAR
STARTCHAR 055C
ENCODING 1372
SWIDTH 270 0
DWIDTH 3 0
BBX 3 3 0 7
BITMAP
20
C0
80
ENDCHAR
STARTCHAR 055D
ENCODING 1373
SWIDTH 180 0
DWIDTH 2 0
BBX 2 2 0 7
BITMAP
C0
40
ENDCHAR
STARTCHAR 055E
ENCODING 1374
SWIDTH 270 0
DWIDTH 3 0
BBX 3 3 0 7
BITMAP
C0
A0
C0
ENDCHAR
STARTCHAR 055F
ENCODING 1375
SWIDTH 540 0
DWIDTH 6 0
BBX 6 2 0 8
BITMAP
80
FC
ENDCHAR
STARTCHAR 0561
ENCODING 1377
SWIDTH 990 0
DWIDTH 11 0
BBX 9 6 1 0
BITMAP
8880
8880
8880
8880
9980
6E80
ENDCHAR
STARTCHAR 0562
ENCODING 1378
SWIDTH 630 0
DWIDTH 7 0
BBX 5 8 1 -2
BITMAP
F0
88
88
88
80
F8
80
80
ENDCHAR
STARTCHAR 0563
ENCODING 1379
SWIDTH 630 0
DWIDTH 7 0
BBX 6 8 1 -2
BITMAP
78
88
88
88
88
FC
08
08
ENDCHAR
STARTCHAR 0564
ENCODING 1380
SWIDTH 630 0
DWIDTH 7 0
BBX 6 8 1 -2
BITMAP
F0
88
88
88
88
8C
08
08
ENDCHAR
STARTCHAR 0565
ENCODING 1381
SWIDTH 630 0
DWIDTH 7 0
BBX 5 9 1 0
BITMAP
80
80
80
F8
80
88
88
88
78
ENDCHAR
STARTCHAR 0566
ENCODING 1382
SWIDTH 630 0
DWIDTH 7 0
BBX 6 8 1 -2
BITMAP
78
88
88
88
88
F8
08
0C
ENDCHAR
STARTCHAR 0567
ENCODING 1383
SWIDTH 540 0
DWIDTH 6 0
BBX 5 9 1 0
BITMAP
80
80
80
F8
80
80
80
80
F0
ENDCHAR
STARTCHAR 0568
ENCODING 1384
SWIDTH 630 0
DWIDTH 7 0
BBX 5 8 1 -2
BITMAP
F0
88
88
88
88
88
80
F8
ENDCHAR
STARTCHAR 0569
ENCODING 1385
SWIDTH 810 0
DWIDTH 9 0
BBX 7 8 1 -2
BITMAP
F8
84
9E
A2
A4
9C
80
80
ENDCHAR
STARTCHAR 056A
ENCODING 1386
SWIDTH 630 0
DWIDTH 7 0
BBX 6 9 1 0
BITMAP
08
08
08
7C
88
88
88
98
70
ENDCHAR
STARTCHAR 056B
ENCODING 1387
SWIDTH 630 0
DWIDTH 7 0
BBX 5 11 1 -2
BITMAP
80
80
80
F0
88
88
88
88
88
80
80
ENDCHAR
STARTCHAR 056C
ENCODING 1388
SWIDTH 270 0
DWIDTH 3 0
BBX 2 8 1 -2
BITMAP
80
80
80
80
80
80
80
C0
ENDCHAR
STARTCHAR 056D
ENCODING 1389
SWIDTH 990 0
DWIDTH 11 0
BBX 9 11 1 -2
BITMAP
8000
8000
8000
F080
8880
8880
8880
8980
8E80
8000
8000
ENDCHAR
STARTCHAR 056E
ENCODING 1390
SWIDTH 630 0
DWIDTH 7 0
BBX 5 9 1 0
BITMAP
40
C0
60
78
88
88
88
88
70
ENDCHAR
STARTCHAR 056F
ENCODING 1391
SWIDTH 630 0
DWIDTH 7 0
BBX 5 11 1 -2
BITMAP
80
80
80
88
88
88
88
88
78
08
08
ENDCHAR
STARTCHAR 0570
ENCODING 1392
SWIDTH 630 0
DWIDTH 7 0
BBX 5 9 1 0
BITMAP
80
80
80
F0
88
88
88
88
88
ENDCHAR
STARTCHAR 0571
ENCODING 1393
SWIDTH 630 0
DWIDTH 7 0
BBX 5 9 1 0
BITMAP
40
40
20
60
90
88
88
88
F8
ENDCHAR
STARTCHAR 0572
ENCODING 1394
SWIDTH 630 0
DWIDTH 7 0
BBX 6 8 1 -2
BITMAP
F0
88
88
88
88
88
08
0C
ENDCHAR
STARTCHAR 0573
ENCODING 1395
SWIDTH 630 0
DWIDTH 7 0
BBX 5 9 1 0
BITMAP
38
60
40
E0
90
88
88
98
E8
ENDCHAR
STARTCHAR 0574
ENCODING 1396
SWIDTH 630 0
DWIDTH 7 0
BBX 6 9 1 0
BITMAP
0C
08
08
88
88
88
88
88
78
ENDCHAR
STARTCHAR 0575
ENCODING 1397
SWIDTH 270 0
DWIDTH 3 0
BBX 3 8 -1 -2
BITMAP
20
20
20
20
20
20
20
E0
ENDCHAR
STARTCHAR 0576
ENCODING 1398
SWIDTH 630 0
DWIDTH 7 0
BBX 6 9 0 0
BITMAP
C0
40
40
44
44
44
44
44
3C
ENDCHAR
STARTCHAR 0577
ENCODING 1399
SWIDTH 450 0
DWIDTH 5 0
BBX 5 8 0 -2
BITMAP
70
88
08
10
20
40
80
78
ENDCHAR
STARTCHAR 0578
ENCODING 1400
SWIDTH 630 0
DWIDTH 7 0
BBX 5 6 1 0
BITMAP
F0
88
88
88
88
88
ENDCHAR
STARTCHAR 0579
ENCODING 1401
SWIDTH 450 0
DWIDTH 5 0
BBX 4 8 0 -2
BITMAP
40
40
60
10
20
40
80
F0
ENDCHAR
STARTCHAR 057A
ENCODING 1402
SWIDTH 990 0
DWIDTH 11 0
BBX 9 8 1 -2
BITMAP
8880
8880
8880
8880
9980
6E80
0080
0080
ENDCHAR
STARTCHAR 057B
ENCODING 1403
SWIDTH 540 0
DWIDTH 6 0
BBX 4 8 1 -2
BITMAP
F0
90
90
90
60
40
80
F0
ENDCHAR
STARTCHAR 057C
ENCODING 1404
SWIDTH 630 0
DWIDTH 7 0
BBX 5 6 1 0
BITMAP
F8
88
88
88
90
98
ENDCHAR
STARTCHAR 057D
ENCODING 1405
SWIDTH 630 0
DWIDTH 7 0
BBX 5 6 1 0
BITMAP
88
88
88
88
88
78
ENDCHAR
STARTCHAR 057E
ENCODING 1406
SWIDTH 630 0
DWIDTH 7 0
BBX 6 11 1 -2
BITMAP
08
08
08
88
88
88
88
88
78
08
0C
ENDCHAR
STARTCHAR 057F
ENCODING 1407
SWIDTH 990 0
DWIDTH 11 0
BBX 9 6 1 0
BITMAP
8F00
8880
8880
8880
9880
6880
ENDCHAR
STARTCHAR 0580
ENCODING 1408
SWIDTH 630 0
DWIDTH 7 0
BBX 5 8 1 -2
BITMAP
F0
88
88
88
88
88
80
80
ENDCHAR
STARTCHAR 0581
ENCODING 1409
SWIDTH 630 0
DWIDTH 7 0
BBX 5 8 1 -2
BITMAP
78
88
88
88
88
F8
08
F0
ENDCHAR
STARTCHAR 0582
ENCODING 1410
SWIDTH 450 0
DWIDTH 5 0
BBX 4 6 1 0
BITMAP
80
80
80
80
80
F0
ENDCHAR
STARTCHAR 0583
ENCODING 1411
SWIDTH 990 0
DWIDTH 11 0
BBX 9 11 1 -2
BITMAP
0800
0800
0800
8F00
8880
8880
8880
9880
6880
0800
0800
ENDCHAR
STARTCHAR 0584
ENCODING 1412
SWIDTH 630 0
DWIDTH 7 0
BBX 6 8 0 -2
BITMAP
5C
64
44
78
40
FC
40
40
ENDCHAR
STARTCHAR 0585
ENCODING 1413
SWIDTH 630 0
DWIDTH 7 0
BBX 5 6 1 0
BITMAP
70
88
88
88
88
70
ENDCHAR
STARTCHAR 0586
ENCODING 1414
SWIDTH 720 0
DWIDTH 8 0
BBX 8 11 0 -2
BITMAP
70
50
50
3C
12
11
11
92
7C
10
10
ENDCHAR
STARTCHAR 0587
ENCODING 1415
SWIDTH 810 0
DWIDTH 9 0
BBX 8 9 1 0
BITMAP
80
80
80
88
88
88
88
88
7F
ENDCHAR
STARTCHAR 0589
ENCODING 1417
SWIDTH 180 0
DWIDTH 2 0
BBX 2 6 0 0
BITMAP
C0
C0
00
00
C0
C0
ENDCHAR
STARTCHAR 058A
ENCODING 1418
SWIDTH 360 0
DWIDTH 4 0
BBX 4 1 0 3
BITMAP
F0
ENDCHAR
STARTCHAR 058F
ENCODING 1423
SWIDTH 630 0
DWIDTH 7 0
BBX 7 8 0 0
BITMAP
78
48
84
1E
04
1E
04
04
ENDCHAR
STARTCHAR 0E3F
ENCODING 3647
SWIDTH 720 0
DWIDTH 8 0
BBX 6 10 1 -1
BITMAP
20
F8
A8
A8
F8
A4
A4
A4
F8
20
ENDCHAR
STARTCHAR 1E80
ENCODING 7808
SWIDTH 990 0
DWIDTH 11 0
BBX 9 11 1 0
BITMAP
1000
0800
0000
8880
8880
9480
9500
5500
6500
6300
6200
ENDCHAR
STARTCHAR 1E81
ENCODING 7809
SWIDTH 810 0
DWIDTH 9 0
BBX 7 9 1 0
BITMAP
20
10
00
92
92
AA
AA
4C
44
ENDCHAR
STARTCHAR 1E82
ENCODING 7810
SWIDTH 990 0
DWIDTH 11 0
BBX 9 11 1 0
BITMAP
0400
0800
0000
8880
8880
9480
9500
5500
6500
6300
6200
ENDCHAR
STARTCHAR 1E83
ENCODING 7811
SWIDTH 810 0
DWIDTH 9 0
BBX 7 9 1 0
BITMAP
08
10
00
92
92
AA
AA
4C
44
ENDCHAR
STARTCHAR 1E84
ENCODING 7812
SWIDTH 990 0
DWIDTH 11 0
BBX 9 10 1 0
BITMAP
1400
0000
8880
8880
9480
9500
5500
6500
6300
6200
ENDCHAR
STARTCHAR 1E85
ENCODING 7813
SWIDTH 810 0
DWIDTH 9 0
BBX 7 8 1 0
BITMAP
28
00
92
92
AA
AA
4C
44
ENDCHAR
STARTCHAR 1E9E
ENCODING 7838
SWIDTH 630 0
DWIDTH 7 0
BBX 6 8 1 0
BITMAP
78
88
88
98
84
84
84
B8
ENDCHAR
STARTCHAR 1EA0
ENCODING 7840
SWIDTH 720 0
DWIDTH 8 0
BBX 7 10 0 -2
BITMAP
18
18
28
24
64
7C
42
82
00
10
ENDCHAR
STARTCHAR 1EA1
ENCODING 7841
SWIDTH 630 0
DWIDTH 7 0
BBX 5 8 1 -2
BITMAP
F0
08
78
88
98
E8
00
40
ENDCHAR
STARTCHAR 1EA2
ENCODING 7842
SWIDTH 720 0
DWIDTH 8 0
BBX 7 11 0 0
BITMAP
18
10
00
18
18
28
24
64
7C
42
82
ENDCHAR
STARTCHAR 1EA3
ENCODING 7843
SWIDTH 630 0
DWIDTH 7 0
BBX 5 9 1 0
BITMAP
20
20
00
F0
08
78
88
98
E8
ENDCHAR
STARTCHAR 1EA4
ENCODING 7844
SWIDTH 720 0
DWIDTH 8 0
BBX 7 11 0 0
BITMAP
1A
28
00
18
18
28
24
64
7C
42
82
ENDCHAR
STARTCHAR 1EA5
ENCODING 7845
SWIDTH 630 0
DWIDTH 7 0
BBX 5 9 1 0
BITMAP
68
50
00
F0
08
78
88
98
E8
ENDCHAR
STARTCHAR 1EA6
ENCODING 7846
SWIDTH 720 0
DWIDTH 8 0
BBX 7 11 0 0
BITMAP
58
28
00
18
18
28
24
64
7C
42
82
ENDCHAR
STARTCHAR 1EA7
ENCODING 7847
SWIDTH 630 0
DWIDTH 7 0
BBX 6 9 0 0
BITMAP
B0
28
00
78
04
3C
44
4C
74
ENDCHAR
STARTCHAR 1EA8
ENCODING 7848
SWIDTH 720 0
DWIDTH 8 0
BBX 7 11 0 0
BITMAP
1A
2A
00
18
18
28
24
64
7C
42
82
ENDCHAR
STARTCHAR 1EA9
ENCODING 7849
SWIDTH 630 0
DWIDTH 7 0
BBX 5 10 1 0
BITMAP
08
68
50
00
F0
08
78
88
98
E8
ENDCHAR
STARTCHAR 1EAA
ENCODING 7850
SWIDTH 720 0
DWIDTH 8 0
BBX 7 11 0 0
BITMAP
38
18
00
18
18
28
24
64
7C
42
82
ENDCHAR
STARTCHAR 1EAB
ENCODING 7851
SWIDTH 630 0
DWIDTH 7 0
BBX 5 11 1 0
BITMAP
70
B0
60
50
00
F0
08
78
88
98
E8
ENDCHAR
STARTCHAR 1EAC
ENCODING 7852
SWIDTH 720 0
DWIDTH 8 0
BBX 7 13 0 -2
BITMAP
18
28
00
18
18
28
24
64
7C
42
82
00
10
ENDCHAR
STARTCHAR 1EAD
ENCODING 7853
SWIDTH 630 0
DWIDTH 7 0
BBX 5 11 1 -2
BITMAP
60
50
00
F0
08
78
88
98
E8
00
40
ENDCHAR
STARTCHAR 1EAE
ENCODING 7854
SWIDTH 720 0
DWIDTH 8 0
BBX 7 11 0 0
BITMAP
08
38
00
18
18
28
24
64
7C
42
82
ENDCHAR
STARTCHAR 1EAF
ENCODING 7855
SWIDTH 630 0
DWIDTH 7 0
BBX 5 10 1 0
BITMAP
20
50
70
00
F0
08
78
88
98
E8
ENDCHAR
STARTCHAR 1EB0
ENCODING 7856
SWIDTH 720 0
DWIDTH 8 0
BBX 7 11 0 0
BITMAP
10
38
00
18
18
28
24
64
7C
42
82
ENDCHAR
STARTCHAR 1EB1
ENCODING 7857
SWIDTH 630 0
DWIDTH 7 0
BBX 5 10 1 0
BITMAP
40
50
70
00
F0
08
78
88
98
E8
ENDCHAR
STARTCHAR 1EB2
ENCODING 7858
SWIDTH 720 0
DWIDTH 8 0
BBX 7 11 0 0
BITMAP
10
38
00
18
18
28
24
64
7C
42
82
ENDCHAR
STARTCHAR 1EB3
ENCODING 7859
SWIDTH 630 0
DWIDTH 7 0
BBX 5 11 1 0
BITMAP
20
20
50
70
00
F0
08
78
88
98
E8
ENDCHAR
STARTCHAR 1EB4
ENCODING 7860
SWIDTH 720 0
DWIDTH 8 0
BBX 7 11 0 0
BITMAP
38
38
00
18
18
28
24
64
7C
42
82
ENDCHAR
STARTCHAR 1EB5
ENCODING 7861
SWIDTH 630 0
DWIDTH 7 0
BBX 5 11 1 0
BITMAP
70
B0
50
70
00
F0
08
78
88
98
E8
ENDCHAR
STARTCHAR 1EB6
ENCODING 7862
SWIDTH 720 0
DWIDTH 8 0
BBX 7 13 0 -2
BITMAP
24
38
00
18
18
28
24
64
7C
42
82
00
10
ENDCHAR
STARTCHAR 1EB7
ENCODING 7863
SWIDTH 630 0
DWIDTH 7 0
BBX 5 11 1 -2
BITMAP
90
70
00
F0
08
78
88
98
E8
00
40
ENDCHAR
STARTCHAR 1EB8
ENCODING 7864
SWIDTH 630 0
DWIDTH 7 0
BBX 5 10 1 -2
BITMAP
F8
80
80
F8
80
80
80
F8
00
20
ENDCHAR
STARTCHAR 1EB9
ENCODING 7865
SWIDTH 630 0
DWIDTH 7 0
BBX 5 8 1 -2
BITMAP
70
88
F8
80
88
78
00
20
ENDCHAR
STARTCHAR 1EBA
ENCODING 7866
SWIDTH 630 0
DWIDTH 7 0
BBX 5 11 1 0
BITMAP
30
20
00
F8
80
80
F8
80
80
80
F8
ENDCHAR
STARTCHAR 1EBB
ENCODING 7867
SWIDTH 630 0
DWIDTH 7 0
BBX 5 9 1 0
BITMAP
30
20
00
70
88
F8
80
88
78
ENDCHAR
STARTCHAR 1EBC
ENCODING 7868
SWIDTH 630 0
DWIDTH 7 0
BBX 5 11 1 0
BITMAP
68
98
00
F8
80
80
F8
80
80
80
F8
ENDCHAR
STARTCHAR 1EBD
ENCODING 7869
SWIDTH 630 0
DWIDTH 7 0
BBX 5 9 1 0
BITMAP
68
B0
00
70
88
F8
80
88
78
ENDCHAR
STARTCHAR 1EBE
ENCODING 7870
SWIDTH 630 0
DWIDTH 7 0
BBX 6 11 1 0
BITMAP
34
50
00
F8
80
80
F8
80
80
80
F8
ENDCHAR
STARTCHAR 1EBF
ENCODING 7871
SWIDTH 630 0
DWIDTH 7 0
BBX 5 9 1 0
BITMAP
28
50
00
70
88
F8
80
88
78
ENDCHAR
STARTCHAR 1EC0
ENCODING 7872
SWIDTH 630 0
DWIDTH 7 0
BBX 5 11 1 0
BITMAP
B0
50
00
F8
80
80
F8
80
80
80
F8
ENDCHAR
STARTCHAR 1EC1
ENCODING 7873
SWIDTH 630 0
DWIDTH 7 0
BBX 5 9 1 0
BITMAP
A0
50
00
70
88
F8
80
88
78
ENDCHAR
STARTCHAR 1EC2
ENCODING 7874
SWIDTH 630 0
DWIDTH 7 0
BBX 6 11 1 0
BITMAP
3C
54
00
F8
80
80
F8
80
80
80
F8
ENDCHAR
STARTCHAR 1EC3
ENCODING 7875
SWIDTH 630 0
DWIDTH 7 0
BBX 5 10 1 0
BITMAP
08
28
50
00
70
88
F8
80
88
78
ENDCHAR
STARTCHAR 1EC4
ENCODING 7876
SWIDTH 630 0
DWIDTH 7 0
BBX 5 11 1 0
BITMAP
70
30
00
F8
80
80
F8
80
80
80
F8
ENDCHAR
STARTCHAR 1EC5
ENCODING 7877
SWIDTH 630 0
DWIDTH 7 0
BBX 5 11 1 0
BITMAP
70
B0
20
50
00
70
88
F8
80
88
78
ENDCHAR
STARTCHAR 1EC6
ENCODING 7878
SWIDTH 630 0
DWIDTH 7 0
BBX 5 13 1 -2
BITMAP
30
50
00
F8
80
80
F8
80
80
80
F8
00
20
ENDCHAR
STARTCHAR 1EC7
ENCODING 7879
SWIDTH 630 0
DWIDTH 7 0
BBX 5 11 1 -2
BITMAP
20
50
00
70
88
F8
80
88
78
00
20
ENDCHAR
STARTCHAR 1EC8
ENCODING 7880
SWIDTH 450 0
DWIDTH 5 0
BBX 3 11 1 0
BITMAP
40
40
00
E0
40
40
40
40
40
40
E0
ENDCHAR
STARTCHAR 1EC9
ENCODING 7881
SWIDTH 270 0
DWIDTH 3 0
BBX 2 9 1 0
BITMAP
C0
80
00
80
80
80
80
80
80
ENDCHAR
STARTCHAR 1ECA
ENCODING 7882
SWIDTH 450 0
DWIDTH 5 0
BBX 3 10 1 -2
BITMAP
E0
40
40
40
40
40
40
E0
00
40
ENDCHAR
STARTCHAR 1ECB
ENCODING 7883
SWIDTH 270 0
DWIDTH 3 0
BBX 1 11 1 -2
BITMAP
80
00
00
80
80
80
80
80
80
00
80
ENDCHAR
STARTCHAR 1ECC
ENCODING 7884
SWIDTH 810 0
DWIDTH 9 0
BBX 7 10 1 -2
BITMAP
78
C4
82
82
82
82
C4
78
00
10
ENDCHAR
STARTCHAR 1ECD
ENCODING 7885
SWIDTH 630 0
DWIDTH 7 0
BBX 5 8 1 -2
BITMAP
70
88
88
88
88
70
00
20
ENDCHAR
STARTCHAR 1ECE
ENCODING 7886
SWIDTH 810 0
DWIDTH 9 0
BBX 7 11 1 0
BITMAP
10
10
00
78
C4
82
82
82
82
C4
78
ENDCHAR
STARTCHAR 1ECF
ENCODING 7887
SWIDTH 630 0
DWIDTH 7 0
BBX 5 9 1 0
BITMAP
20
20
00
70
88
88
88
88
70
ENDCHAR
STARTCHAR 1ED0
ENCODING 7888
SWIDTH 810 0
DWIDTH 9 0
BBX 7 11 1 0
BITMAP
34
28
00
78
C4
82
82
82
82
C4
78
ENDCHAR
STARTCHAR 1ED1
ENCODING 7889
SWIDTH 630 0
DWIDTH 7 0
BBX 5 9 1 0
BITMAP
68
50
00
70
88
88
88
88
70
ENDCHAR
STARTCHAR 1ED2
ENCODING 7890
SWIDTH 810 0
DWIDTH 9 0
BBX 7 11 1 0
BITMAP
B0
28
00
78
C4
82
82
82
82
C4
78
ENDCHAR
STARTCHAR 1ED3
ENCODING 7891
SWIDTH 630 0
DWIDTH 7 0
BBX 6 9 0 0
BITMAP
B0
28
00
38
44
44
44
44
38
ENDCHAR
STARTCHAR 1ED4
ENCODING 7892
SWIDTH 810 0
DWIDTH 9 0
BBX 7 11 1 0
BITMAP
36
2C
00
78
C4
82
82
82
82
C4
78
ENDCHAR
STARTCHAR 1ED5
ENCODING 7893
SWIDTH 630 0
DWIDTH 7 0
BBX 5 10 1 0
BITMAP
08
68
50
00
70
88
88
88
88
70
ENDCHAR
STARTCHAR 1ED6
ENCODING 7894
SWIDTH 810 0
DWIDTH 9 0
BBX 7 11 1 0
BITMAP
38
30
00
78
C4
82
82
82
82
C4
78
ENDCHAR
STARTCHAR 1ED7
ENCODING 7895
SWIDTH 630 0
DWIDTH 7 0
BBX 5 11 1 0
BITMAP
70
B0
60
50
00
70
88
88
88
88
70
ENDCHAR
STARTCHAR 1ED8
ENCODING 7896
SWIDTH 810 0
DWIDTH 9 0
BBX 7 13 1 -2
BITMAP
30
28
00
78
C4
82
82
82
82
C4
78
00
10
ENDCHAR
STARTCHAR 1ED9
ENCODING 7897
SWIDTH 630 0
DWIDTH 7 0
BBX 5 11 1 -2
BITMAP
60
50
00
70
88
88
88
88
70
00
20
ENDCHAR
STARTCHAR 1EDA
ENCODING 7898
SWIDTH 810 0
DWIDTH 9 0
BBX 8 11 1 0
BITMAP
10
10
00
79
C5
82
82
82
82
C4
78
ENDCHAR
STARTCHAR 1EDB
ENCODING 7899
SWIDTH 630 0
DWIDTH 7 0
BBX 6 9 1 0
BITMAP
30
20
04
78
88
88
88
88
70
ENDCHAR
STARTCHAR 1EDC
ENCODING 7900
SWIDTH 810 0
DWIDTH 9 0
BBX 8 11 1 0
BITMAP
20
10
00
79
C5
82
82
82
82
C4
78
ENDCHAR
STARTCHAR 1EDD
ENCODING 7901
SWIDTH 630 0
DWIDTH 7 0
BBX 6 9 1 0
BITMAP
40
20
04
78
88
88
88
88
70
ENDCHAR
STARTCHAR 1EDE
ENCODING 7902
SWIDTH 810 0
DWIDTH 9 0
BBX 8 11 1 0
BITMAP
10
10
00
79
C5
82
82
82
82
C4
78
ENDCHAR
STARTCHAR 1EDF
ENCODING 7903
SWIDTH 630 0
DWIDTH 7 0
BBX 6 9 1 0
BITMAP
20
20
04
78
88
88
88
88
70
ENDCHAR
STARTCHAR 1EE0
ENCODING 7904
SWIDTH 810 0
DWIDTH 9 0
BBX 8 11 1 0
BITMAP
64
58
00
79
C5
82
82
82
82
C4
78
ENDCHAR
STARTCHAR 1EE1
ENCODING 7905
SWIDTH 630 0
DWIDTH 7 0
BBX 6 9 1 0
BITMAP
D0
B0
04
78
88
88
88
88
70
ENDCHAR
STARTCHAR 1EE2
ENCODING 7906
SWIDTH 810 0
DWIDTH 9 0
BBX 8 10 1 -2
BITMAP
79
C5
82
82
82
82
C4
78
00
10
ENDCHAR
STARTCHAR 1EE3
ENCODING 7907
SWIDTH 630 0
DWIDTH 7 0
BBX 6 9 1 -2
BITMAP
04
78
88
88
88
88
70
00
20
ENDCHAR
STARTCHAR 1EE4
ENCODING 7908
SWIDTH 720 0
DWIDTH 8 0
BBX 6 10 1 -2
BITMAP
84
84
84
84
84
84
CC
78
00
30
ENDCHAR
STARTCHAR 1EE5
ENCODING 7909
SWIDTH 630 0
DWIDTH 7 0
BBX 5 8 1 -2
BITMAP
88
88
88
88
88
78
00
20
ENDCHAR
STARTCHAR 1EE6
ENCODING 7910
SWIDTH 720 0
DWIDTH 8 0
BBX 6 11 1 0
BITMAP
30
10
00
84
84
84
84
84
84
CC
78
ENDCHAR
STARTCHAR 1EE7
ENCODING 7911
SWIDTH 630 0
DWIDTH 7 0
BBX 5 9 1 0
BITMAP
20
20
00
88
88
88
88
88
78
ENDCHAR
STARTCHAR 1EE8
ENCODING 7912
SWIDTH 720 0
DWIDTH 8 0
BBX 8 11 1 0
BITMAP
10
10
01
87
84
84
84
84
84
84
78
ENDCHAR
STARTCHAR 1EE9
ENCODING 7913
SWIDTH 630 0
DWIDTH 7 0
BBX 7 9 1 0
BITMAP
10
20
02
8E
88
88
88
88
78
ENDCHAR
STARTCHAR 1EEA
ENCODING 7914
SWIDTH 720 0
DWIDTH 8 0
BBX 8 11 1 0
BITMAP
20
10
01
87
84
84
84
84
84
84
78
ENDCHAR
STARTCHAR 1EEB
ENCODING 7915
SWIDTH 630 0
DWIDTH 7 0
BBX 7 9 1 0
BITMAP
40
20
02
8E
88
88
88
88
78
ENDCHAR
STARTCHAR 1EEC
ENCODING 7916
SWIDTH 720 0
DWIDTH 8 0
BBX 8 11 1 0
BITMAP
30
10
01
87
84
84
84
84
84
84
78
ENDCHAR
STARTCHAR 1EED
ENCODING 7917
SWIDTH 630 0
DWIDTH 7 0
BBX 7 9 1 0
BITMAP
20
20
02
8E
88
88
88
88
78
ENDCHAR
STARTCHAR 1EEE
ENCODING 7918
SWIDTH 720 0
DWIDTH 8 0
BBX 8 11 1 0
BITMAP
68
58
01
87
84
84
84
84
84
84
78
ENDCHAR
STARTCHAR 1EEF
ENCODING 7919
SWIDTH 630 0
DWIDTH 7 0
BBX 7 9 1 0
BITMAP
68
B0
02
8E
88
88
88
88
78
ENDCHAR
STARTCHAR 1EF0
ENCODING 7920
SWIDTH 720 0
DWIDTH 8 0
BBX 8 11 1 -2
BITMAP
01
87
84
84
84
84
84
84
78
00
30
ENDCHAR
STARTCHAR 1EF1
ENCODING 7921
SWIDTH 630 0
DWIDTH 7 0
BBX 7 9 1 -2
BITMAP
02
8E
88
88
88
88
78
00
20
ENDCHAR
STARTCHAR 1EF2
ENCODING 7922
SWIDTH 630 0
DWIDTH 7 0
BBX 6 11 0 0
BITMAP
20
10
00
C4
44
28
38
10
10
10
10
ENDCHAR
STARTCHAR 1EF3
ENCODING 7923
SWIDTH 630 0
DWIDTH 7 0
BBX 5 11 1 -2
BITMAP
40
20
00
88
98
90
50
60
20
40
40
ENDCHAR
STARTCHAR 1EF4
ENCODING 7924
SWIDTH 630 0
DWIDTH 7 0
BBX 6 10 0 -2
BITMAP
C4
44
28
38
10
10
10
10
00
10
ENDCHAR
STARTCHAR 1EF5
ENCODING 7925
SWIDTH 630 0
DWIDTH 7 0
BBX 5 8 1 -2
BITMAP
88
98
90
50
60
20
40
50
ENDCHAR
STARTCHAR 1EF6
ENCODING 7926
SWIDTH 630 0
DWIDTH 7 0
BBX 6 11 0 0
BITMAP
10
10
00
C4
44
28
38
10
10
10
10
ENDCHAR
STARTCHAR 1EF7
ENCODING 7927
SWIDTH 630 0
DWIDTH 7 0
BBX 5 11 1 -2
BITMAP
20
20
00
88
98
90
50
60
20
40
40
ENDCHAR
STARTCHAR 1EF8
ENCODING 7928
SWIDTH 630 0
DWIDTH 7 0
BBX 6 11 0 0
BITMAP
34
58
00
C4
44
28
38
10
10
10
10
ENDCHAR
STARTCHAR 1EF9
ENCODING 7929
SWIDTH 630 0
DWIDTH 7 0
BBX 5 11 1 -2
BITMAP
48
B0
00
88
98
90
50
60
20
40
40
ENDCHAR
STARTCHAR 2012
ENCODING 8210
SWIDTH 630 0
DWIDTH 7 0
BBX 5 1 1 3
BITMAP
F8
ENDCHAR
STARTCHAR 2013
ENCODING 8211
SWIDTH 630 0
DWIDTH 7 0
BBX 5 1 1 3
BITMAP
F8
ENDCHAR
STARTCHAR 2014
ENCODING 8212
SWIDTH 990 0
DWIDTH 11 0
BBX 9 1 1 3
BITMAP
FF80
ENDCHAR
STARTCHAR 2015
ENCODING 8213
SWIDTH 990 0
DWIDTH 11 0
BBX 9 1 1 3
BITMAP
FF80
ENDCHAR
STARTCHAR 2017
ENCODING 8215
SWIDTH 630 0
DWIDTH 7 0
BBX 7 2 0 -2
BITMAP
FE
FE
ENDCHAR
STARTCHAR 2018
ENCODING 8216
SWIDTH 270 0
DWIDTH 3 0
BBX 2 3 0 6
BITMAP
80
40
40
ENDCHAR
STARTCHAR 2019
ENCODING 8217
SWIDTH 270 0
DWIDTH 3 0
BBX 2 3 1 6
BITMAP
40
80
80
ENDCHAR
STARTCHAR 201A
ENCODING 8218
SWIDTH 270 0
DWIDTH 3 0
BBX 2 3 0 -1
BITMAP
40
80
80
ENDCHAR
STARTCHAR 201B
ENCODING 8219
SWIDTH 270 0
DWIDTH 3 0
BBX 2 3 0 6
BITMAP
40
40
80
ENDCHAR
STARTCHAR 201C
ENCODING 8220
SWIDTH 450 0
DWIDTH 5 0
BBX 4 3 0 6
BITMAP
B0
50
50
ENDCHAR
STARTCHAR 201D
ENCODING 8221
SWIDTH 450 0
DWIDTH 5 0
BBX 4 3 1 6
BITMAP
50
A0
A0
ENDCHAR
STARTCHAR 201E
ENCODING 8222
SWIDTH 450 0
DWIDTH 5 0
BBX 4 3 0 -1
BITMAP
50
90
A0
ENDCHAR
STARTCHAR 201F
ENCODING 8223
SWIDTH 450 0
DWIDTH 5 0
BBX 4 3 0 6
BITMAP
50
50
B0
ENDCHAR
STARTCHAR 2020
ENCODING 8224
SWIDTH 630 0
DWIDTH 7 0
BBX 5 8 1 1
BITMAP
20
20
F8
20
20
20
20
20
ENDCHAR
STARTCHAR 2021
ENCODING 8225
SWIDTH 630 0
DWIDTH 7 0
BBX 5 8 1 1
BITMAP
20
20
F8
20
20
F8
20
20
ENDCHAR
STARTCHAR 2022
ENCODING 8226
SWIDTH 540 0
DWIDTH 6 0
BBX 4 4 1 2
BITMAP
60
F0
F0
60
ENDCHAR
STARTCHAR 2026
ENCODING 8230
SWIDTH 810 0
DWIDTH 9 0
BBX 7 1 1 0
BITMAP
92
ENDCHAR
STARTCHAR 202F
ENCODING 8239
SWIDTH 180 0
DWIDTH 2 0
BBX 0 0 0 0
BITMAP
ENDCHAR
STARTCHAR 2030
ENCODING 8240
SWIDTH 1530 0
DWIDTH 17 0
BBX 15 8 1 0
BITMAP
E200
9200
9400
E400
09DC
0A52
1252
11DC
ENDCHAR
STARTCHAR 2032
ENCODING 8242
SWIDTH 360 0
DWIDTH 4 0
BBX 2 3 1 5
BITMAP
40
40
80
ENDCHAR
STARTCHAR 2033
ENCODING 8243
SWIDTH 540 0
DWIDTH 6 0
BBX 4 3 1 5
BITMAP
50
50
A0
ENDCHAR
STARTCHAR 2034
ENCODING 8244
SWIDTH 540 0
DWIDTH 6 0
BBX 6 3 0 5
BITMAP
54
68
A8
ENDCHAR
STARTCHAR 2039
ENCODING 8249
SWIDTH 450 0
DWIDTH 5 0
BBX 3 5 1 1
BITMAP
20
40
80
40
20
ENDCHAR
STARTCHAR 203A
ENCODING 8250
SWIDTH 450 0
DWIDTH 5 0
BBX 3 5 1 1
BITMAP
80
40
20
40
80
ENDCHAR
STARTCHAR 203C
ENCODING 8252
SWIDTH 630 0
DWIDTH 7 0
BBX 3 8 2 0
BITMAP
A0
A0
A0
A0
A0
A0
00
A0
ENDCHAR
STARTCHAR 203E
ENCODING 8254
SWIDTH 630 0
DWIDTH 7 0
BBX 7 1 0 9
BITMAP
FE
ENDCHAR
STARTCHAR 2044
ENCODING 8260
SWIDTH 360 0
DWIDTH 4 0
BBX 4 8 0 0
BITMAP
10
10
20
20
40
40
80
80
ENDCHAR
STARTCHAR 2070
ENCODING 8304
SWIDTH 540 0
DWIDTH 6 0
BBX 4 5 1 3
BITMAP
60
90
90
90
60
ENDCHAR
STARTCHAR 2074
ENCODING 8308
SWIDTH 540 0
DWIDTH 6 0
BBX 4 5 1 3
BITMAP
20
60
A0
F0
20
ENDCHAR
STARTCHAR 2075
ENCODING 8309
SWIDTH 540 0
DWIDTH 6 0
BBX 4 5 1 3
BITMAP
F0
80
E0
10
E0
ENDCHAR
STARTCHAR 2076
ENCODING 8310
SWIDTH 540 0
DWIDTH 6 0
BBX 4 5 1 3
BITMAP
70
80
F0
90
70
ENDCHAR
STARTCHAR 2077
ENCODING 8311
SWIDTH 540 0
DWIDTH 6 0
BBX 4 5 1 3
BITMAP
F0
10
20
40
40
ENDCHAR
STARTCHAR 2078
ENCODING 8312
SWIDTH 540 0
DWIDTH 6 0
BBX 4 5 1 3
BITMAP
60
90
60
90
E0
ENDCHAR
STARTCHAR 2079
ENCODING 8313
SWIDTH 540 0
DWIDTH 6 0
BBX 4 5 1 3
BITMAP
E0
90
F0
10
E0
ENDCHAR
STARTCHAR 207F
ENCODING 8319
SWIDTH 540 0
DWIDTH 6 0
BBX 4 5 1 3
BITMAP
F0
90
90
90
90
ENDCHAR
STARTCHAR 2080
ENCODING 8320
SWIDTH 540 0
DWIDTH 6 0
BBX 4 5 1 0
BITMAP
60
90
90
90
60
ENDCHAR
STARTCHAR 2081
ENCODING 8321
SWIDTH 540 0
DWIDTH 6 0
BBX 3 5 2 0
BITMAP
40
C0
40
40
E0
ENDCHAR
STARTCHAR 2082
ENCODING 8322
SWIDTH 540 0
DWIDTH 6 0
BBX 4 5 1 0
BITMAP
F0
10
20
40
F0
ENDCHAR
STARTCHAR 2083
ENCODING 8323
SWIDTH 540 0
DWIDTH 6 0
BBX 4 5 1 0
BITMAP
F0
10
60
10
F0
ENDCHAR
STARTCHAR 2084
ENCODING 8324
SWIDTH 540 0
DWIDTH 6 0
BBX 4 5 1 0
BITMAP
20
60
A0
F0
20
ENDCHAR
STARTCHAR 2085
ENCODING 8325
SWIDTH 540 0
DWIDTH 6 0
BBX 4 5 1 0
BITMAP
F0
80
E0
10
E0
ENDCHAR
STARTCHAR 2086
ENCODING 8326
SWIDTH 540 0
DWIDTH 6 0
BBX 4 5 1 0
BITMAP
70
80
F0
90
70
ENDCHAR
STARTCHAR 2087
ENCODING 8327
SWIDTH 540 0
DWIDTH 6 0
BBX 4 5 1 0
BITMAP
F0
10
20
40
40
ENDCHAR
STARTCHAR 2088
ENCODING 8328
SWIDTH 540 0
DWIDTH 6 0
BBX 4 5 1 0
BITMAP
60
90
60
90
E0
ENDCHAR
STARTCHAR 2089
ENCODING 8329
SWIDTH 540 0
DWIDTH 6 0
BBX 4 5 1 0
BITMAP
E0
90
F0
10
E0
ENDCHAR
STARTCHAR 20A0
ENCODING 8352
SWIDTH 630 0
DWIDTH 7 0
BBX 5 8 1 0
BITMAP
F0
80
B8
A0
F8
20
20
38
ENDCHAR
STARTCHAR 20A1
ENCODING 8353
SWIDTH 720 0
DWIDTH 8 0
BBX 6 10 1 -1
BITMAP
0C
7C
D4
A8
A8
B0
D0
D4
FC
A0
ENDCHAR
STARTCHAR 20A2
ENCODING 8354
SWIDTH 720 0
DWIDTH 8 0
BBX 6 8 1 0
BITMAP
7C
C4
80
BC
B0
B0
F4
7C
ENDCHAR
STARTCHAR 20A3
ENCODING 8355
SWIDTH 630 0
DWIDTH 7 0
BBX 6 8 0 0
BITMAP
7C
40
40
7C
40
F0
40
40
ENDCHAR
STARTCHAR 20A4
ENCODING 8356
SWIDTH 630 0
DWIDTH 7 0
BBX 5 8 1 0
BITMAP
38
40
40
F0
40
F0
40
F8
ENDCHAR
STARTCHAR 20A5
ENCODING 8357
SWIDTH 990 0
DWIDTH 11 0
BBX 9 8 1 -1
BITMAP
0400
F700
8880
8880
9880
9880
A880
2000
ENDCHAR
STARTCHAR 20A6
ENCODING 8358
SWIDTH 720 0
DWIDTH 8 0
BBX 8 8 0 0
BITMAP
62
72
FF
4A
FF
46
46
42
ENDCHAR
STARTCHAR 20A7
ENCODING 8359
SWIDTH 1170 0
DWIDTH 13 0
BBX 11 8 1 0
BITMAP
E000
9400
9FE0
9500
E580
8460
8420
85C0
ENDCHAR
STARTCHAR 20A8
ENCODING 8360
SWIDTH 1170 0
DWIDTH 13 0
BBX 11 8 1 0
BITMAP
F000
8800
89E0
8920
F180
9060
8920
85E0
ENDCHAR
STARTCHAR 20A9
ENCODING 8361
SWIDTH 990 0
DWIDTH 11 0
BBX 10 8 0 0
BITMAP
4440
4C40
FFC0
4A80
2A80
FFC0
3180
3100
ENDCHAR
STARTCHAR 20AA
ENCODING 8362
SWIDTH 810 0
DWIDTH 9 0
BBX 7 7 1 0
BITMAP
FA
8A
8A
AA
A2
A2
BE
ENDCHAR
STARTCHAR 20AB
ENCODING 8363
SWIDTH 630 0
DWIDTH 7 0
BBX 6 11 1 -2
BITMAP
08
3C
08
78
88
88
88
88
F8
00
F8
ENDCHAR
STARTCHAR 20AC
ENCODING 8364
SWIDTH 630 0
DWIDTH 7 0
BBX 7 8 0 0
BITMAP
3C
42
F2
40
F0
42
62
3C
ENDCHAR
STARTCHAR 20AD
ENCODING 8365
SWIDTH 720 0
DWIDTH 8 0
BBX 8 8 0 0
BITMAP
46
48
50
FF
50
48
44
42
ENDCHAR
STARTCHAR 20AE
ENCODING 8366
SWIDTH 630 0
DWIDTH 7 0
BBX 7 8 0 0
BITMAP
FE
10
18
30
58
30
50
10
ENDCHAR
STARTCHAR 20AF
ENCODING 8367
SWIDTH 990 0
DWIDTH 11 0
BBX 11 11 0 -2
BITMAP
0400
3E00
5300
1100
3100
21C0
E320
A320
DDC0
0100
0100
ENDCHAR
STARTCHAR 20B0
ENCODING 8368
SWIDTH 540 0
DWIDTH 6 0
BBX 5 11 0 -2
BITMAP
18
28
38
18
18
10
58
68
A8
08
18
ENDCHAR
STARTCHAR 20B1
ENCODING 8369
SWIDTH 630 0
DWIDTH 7 0
BBX 7 8 0 0
BITMAP
78
44
FE
44
FE
4C
78
40
ENDCHAR
STARTCHAR 20B2
ENCODING 8370
SWIDTH 810 0
DWIDTH 9 0
BBX 7 10 1 -1
BITMAP
10
3C
D2
90
90
96
92
D2
7C
10
ENDCHAR
STARTCHAR 20B3
ENCODING 8371
SWIDTH 720 0
DWIDTH 8 0
BBX 7 8 0 0
BITMAP
18
38
28
FE
44
FE
42
82
ENDCHAR
STARTCHAR 20B4
ENCODING 8372
SWIDTH 720 0
DWIDTH 8 0
BBX 7 8 0 0
BITMAP
7C
06
FE
1C
78
FE
40
3E
ENDCHAR
STARTCHAR 20B5
ENCODING 8373
SWIDTH 720 0
DWIDTH 8 0
BBX 6 10 1 -1
BITMAP
10
78
D4
90
90
90
90
D4
78
10
ENDCHAR
STARTCHAR 20B8
ENCODING 8376
SWIDTH 630 0
DWIDTH 7 0
BBX 7 8 0 0
BITMAP
FE
00
FE
10
10
10
10
10
ENDCHAR
STARTCHAR 20B9
ENCODING 8377
SWIDTH 630 0
DWIDTH 7 0
BBX 5 8 1 0
BITMAP
F8
10
F8
10
E0
40
20
10
ENDCHAR
STARTCHAR 20BA
ENCODING 8378
SWIDTH 630 0
DWIDTH 7 0
BBX 6 8 1 0
BITMAP
50
60
D0
60
CC
48
58
70
ENDCHAR
STARTCHAR 20BB
ENCODING 8379
SWIDTH 630 0
DWIDTH 7 0
BBX 7 8 0 0
BITMAP
E0
A0
FC
22
3A
7C
20
3C
ENDCHAR
STARTCHAR 20BC
ENCODING 8380
SWIDTH 810 0
DWIDTH 9 0
BBX 9 8 0 0
BITMAP
0800
0800
3E00
6B00
4900
C900
8880
8880
ENDCHAR
STARTCHAR 20BD
ENCODING 8381
SWIDTH 630 0
DWIDTH 7 0
BBX 5 8 1 0
BITMAP
F8
88
88
88
F0
80
F0
80
ENDCHAR
STARTCHAR 20BE
ENCODING 8382
SWIDTH 720 0
DWIDTH 8 0
BBX 7 9 0 0
BITMAP
18
3C
5A
5A
9A
80
40
40
7E
ENDCHAR
STARTCHAR 20F0
ENCODING 8432
SWIDTH 0 0
DWIDTH 0 0
BBX 5 5 -6 7
BITMAP
20
F8
20
F8
20
ENDCHAR
STARTCHAR 2105
ENCODING 8453
SWIDTH 1080 0
DWIDTH 12 0
BBX 10 8 1 0
BITMAP
E200
8200
8400
E400
0980
0A40
1240
1180
ENDCHAR
STARTCHAR 2113
ENCODING 8467
SWIDTH 360 0
DWIDTH 4 0
BBX 3 8 0 0
BITMAP
60
60
60
60
40
C0
40
20
ENDCHAR
STARTCHAR 2116
ENCODING 8470
SWIDTH 1170 0
DWIDTH 13 0
BBX 11 8 1 0
BITMAP
C4C0
C520
A520
A520
94C0
9400
8CC0
8C00
ENDCHAR
STARTCHAR 2120
ENCODING 8480
SWIDTH 1080 0
DWIDTH 12 0
BBX 10 6 1 2
BITMAP
E440
96C0
C6C0
3540
9440
F440
ENDCHAR
STARTCHAR 2122
ENCODING 8482
SWIDTH 990 0
DWIDTH 11 0
BBX 9 4 1 4
BITMAP
ED80
4E80
4A80
4880
ENDCHAR
STARTCHAR 2126
ENCODING 8486
SWIDTH 810 0
DWIDTH 9 0
BBX 7 8 1 0
BITMAP
7C
C6
82
82
82
44
28
EE
ENDCHAR
STARTCHAR 212E
ENCODING 8494
SWIDTH 720 0
DWIDTH 8 0
BBX 6 7 1 0
BITMAP
30
4C
84
FC
80
C4
38
ENDCHAR
STARTCHAR 215B
ENCODING 8539
SWIDTH 990 0
DWIDTH 11 0
BBX 9 8 1 0
BITMAP
4400
C400
4800
4B80
5280
1380
2480
2380
ENDCHAR
STARTCHAR 215C
ENCODING 8540
SWIDTH 990 0
DWIDTH 11 0
BBX 10 8 1 0
BITMAP
E200
2400
4400
2B80
EA80
1380
1240
2380
ENDCHAR
STARTCHAR 215D
ENCODING 8541
SWIDTH 990 0
DWIDTH 11 0
BBX 10 8 1 0
BITMAP
E200
8400
E400
2B80
EA80
1380
1240
2380
ENDCHAR
STARTCHAR 215E
ENCODING 8542
SWIDTH 990 0
DWIDTH 11 0
BBX 9 8 1 0
BITMAP
F400
2400
2800
4B00
9480
1300
2480
2380
ENDCHAR
STARTCHAR 2202
ENCODING 8706
SWIDTH 630 0
DWIDTH 7 0
BBX 5 8 1 0
BITMAP
70
88
08
78
88
88
98
70
ENDCHAR
STARTCHAR 2206
ENCODING 8710
SWIDTH 720 0
DWIDTH 8 0
BBX 8 8 0 0
BITMAP
18
18
24
24
24
42
42
FF
ENDCHAR
STARTCHAR 220F
ENCODING 8719
SWIDTH 810 0
DWIDTH 9 0
BBX 7 9 1 -1
BITMAP
FE
44
44
44
44
44
44
44
44
ENDCHAR
STARTCHAR 2211
ENCODING 8721
SWIDTH 720 0
DWIDTH 8 0
BBX 6 9 1 -1
BITMAP
FC
40
20
10
10
30
60
C0
FC
ENDCHAR
STARTCHAR 2212
ENCODING 8722
SWIDTH 810 0
DWIDTH 9 0
BBX 7 1 1 3
BITMAP
FE
ENDCHAR
STARTCHAR 2215
ENCODING 8725
SWIDTH 360 0
DWIDTH 4 0
BBX 4 8 0 0
BITMAP
10
10
20
20
40
40
80
80
ENDCHAR
STARTCHAR 2219
ENCODING 8729
SWIDTH 360 0
DWIDTH 4 0
BBX 2 2 1 3
BITMAP
C0
C0
ENDCHAR
STARTCHAR 221A
ENCODING 8730
SWIDTH 810 0
DWIDTH 9 0
BBX 8 11 1 -1
BITMAP
01
01
02
02
04
C4
44
28
28
30
10
ENDCHAR
STARTCHAR 221E
ENCODING 8734
SWIDTH 990 0
DWIDTH 11 0
BBX 9 5 1 1
BITMAP
7700
8C80
8880
9880
7700
ENDCHAR
STARTCHAR 222B
ENCODING 8747
SWIDTH 630 0
DWIDTH 7 0
BBX 5 11 1 -2
BITMAP
18
20
20
20
20
20
20
20
20
20
C0
ENDCHAR
STARTCHAR 2248
ENCODING 8776
SWIDTH 810 0
DWIDTH 9 0
BBX 7 5 1 1
BITMAP
72
9C
00
72
9C
ENDCHAR
STARTCHAR 2260
ENCODING 8800
SWIDTH 810 0
DWIDTH 9 0
BBX 7 7 1 0
BITMAP
08
08
FE
10
FE
20
20
ENDCHAR
STARTCHAR 2261
ENCODING 8801
SWIDTH 810 0
DWIDTH 9 0
BBX 7 5 1 1
BITMAP
FE
00
FE
00
FE
ENDCHAR
STARTCHAR 2264
ENCODING 8804
SWIDTH 810 0
DWIDTH 9 0
BBX 7 8 1 0
BITMAP
06
18
60
60
18
06
00
FE
ENDCHAR
STARTCHAR 2265
ENCODING 8805
SWIDTH 810 0
DWIDTH 9 0
BBX 7 8 1 0
BITMAP
C0
30
0C
0C
30
C0
00
FE
ENDCHAR
STARTCHAR 2500
ENCODING 9472
SWIDTH 720 0
DWIDTH 8 0
BBX 8 1 0 3
BITMAP
FF
ENDCHAR
STARTCHAR 2502
ENCODING 9474
SWIDTH 720 0
DWIDTH 8 0
BBX 1 13 3 -3
BITMAP
80
80
80
80
80
80
80
80
80
80
80
80
80
ENDCHAR
STARTCHAR 250C
ENCODING 9484
SWIDTH 720 0
DWIDTH 8 0
BBX 5 7 3 -3
BITMAP
F8
80
80
80
80
80
80
ENDCHAR
STARTCHAR 2510
ENCODING 9488
SWIDTH 720 0
DWIDTH 8 0
BBX 4 7 0 -3
BITMAP
F0
10
10
10
10
10
10
ENDCHAR
STARTCHAR 2514
ENCODING 9492
SWIDTH 720 0
DWIDTH 8 0
BBX 5 7 3 3
BITMAP
80
80
80
80
80
80
F8
ENDCHAR
STARTCHAR 2518
ENCODING 9496
SWIDTH 720 0
DWIDTH 8 0
BBX 4 7 0 3
BITMAP
10
10
10
10
10
10
F0
ENDCHAR
STARTCHAR 25A1
ENCODING 9633
SWIDTH 630 0
DWIDTH 7 0
BBX 5 5 1 0
BITMAP
F8
88
88
88
F8
ENDCHAR
STARTCHAR 25AA
ENCODING 9642
SWIDTH 360 0
DWIDTH 4 0
BBX 2 2 1 3
BITMAP
C0
C0
ENDCHAR
STARTCHAR 25AB
ENCODING 9643
SWIDTH 360 0
DWIDTH 4 0
BBX 2 2 1 3
BITMAP
C0
C0
ENDCHAR
STARTCHAR 25CA
ENCODING 9674
SWIDTH 810 0
DWIDTH 9 0
BBX 7 7 1 0
BITMAP
10
28
44
82
44
28
10
ENDCHAR
STARTCHAR 25CF
ENCODING 9679
SWIDTH 630 0
DWIDTH 7 0
BBX 5 5 1 1
BITMAP
70
F0
F8
F0
70
ENDCHAR
STARTCHAR 25E6
ENCODING 9702
SWIDTH 360 0
DWIDTH 4 0
BBX 2 3 1 2
BITMAP
C0
C0
C0
ENDCHAR
STARTCHAR 266A
ENCODING 9834
SWIDTH 540 0
DWIDTH 6 0
BBX 5 7 0 0
BITMAP
18
28
20
20
60
E0
E0
ENDCHAR
STARTCHAR 2C6D
ENCODING 11373
SWIDTH 720 0
DWIDTH 8 0
BBX 6 8 1 0
BITMAP
7C
C4
84
84
84
84
C4
7C
ENDCHAR
STARTCHAR 2C71
ENCODING 11377
SWIDTH 630 0
DWIDTH 7 0
BBX 6 6 1 0
BITMAP
8C
98
90
50
60
20
ENDCHAR
STARTCHAR 2C72
ENCODING 11378
SWIDTH 1080 0
DWIDTH 12 0
BBX 11 8 1 0
BITMAP
88E0
88A0
9480
9500
5500
6500
6300
6200
ENDCHAR
STARTCHAR 2C73
ENCODING 11379
SWIDTH 900 0
DWIDTH 10 0
BBX 9 6 1 0
BITMAP
9180
9280
AA00
AA00
4C00
4400
ENDCHAR
STARTCHAR A71B
ENCODING 42779
SWIDTH 450 0
DWIDTH 5 0
BBX 2 4 1 4
BITMAP
40
C0
40
40
ENDCHAR
STARTCHAR A71C
ENCODING 42780
SWIDTH 450 0
DWIDTH 5 0
BBX 2 4 1 4
BITMAP
40
40
C0
40
ENDCHAR
STARTCHAR A71D
ENCODING 42781
SWIDTH 270 0
DWIDTH 3 0
BBX 1 4 1 5
BITMAP
80
80
00
80
ENDCHAR
STARTCHAR A71E
ENCODING 42782
SWIDTH 270 0
DWIDTH 3 0
BBX 1 4 1 5
BITMAP
80
00
80
80
ENDCHAR
STARTCHAR A71F
ENCODING 42783
SWIDTH 270 0
DWIDTH 3 0
BBX 1 4 1 2
BITMAP
80
00
80
80
ENDCHAR
STARTCHAR A788
ENCODING 42888
SWIDTH 630 0
DWIDTH 7 0
BBX 3 2 2 -3
BITMAP
40
A0
ENDCHAR
STARTCHAR A789
ENCODING 42889
SWIDTH 450 0
DWIDTH 5 0
BBX 1 6 2 0
BITMAP
80
80
00
00
80
80
ENDCHAR
STARTCHAR A78A
ENCODING 42890
SWIDTH 540 0
DWIDTH 6 0
BBX 4 3 1 2
BITMAP
F0
00
F0
ENDCHAR
STARTCHAR A78B
ENCODING 42891
SWIDTH 270 0
DWIDTH 3 0
BBX 1 4 1 5
BITMAP
80
80
80
80
ENDCHAR
STARTCHAR A78C
ENCODING 42892
SWIDTH 270 0
DWIDTH 3 0
BBX 1 3 1 6
BITMAP
80
80
80
ENDCHAR
STARTCHAR FB00
ENCODING 64256
SWIDTH 720 0
DWIDTH 8 0
BBX 8 9 0 0
BITMAP
33
44
44
FF
44
44
44
44
44
ENDCHAR
STARTCHAR FB01
ENCODING 64257
SWIDTH 630 0
DWIDTH 7 0
BBX 6 9 0 0
BITMAP
30
44
40
FC
44
44
44
44
44
ENDCHAR
STARTCHAR FB02
ENCODING 64258
SWIDTH 630 0
DWIDTH 7 0
BBX 6 9 0 0
BITMAP
3C
44
44
F4
44
44
44
44
44
ENDCHAR
STARTCHAR FB03
ENCODING 64259
SWIDTH 990 0
DWIDTH 11 0
BBX 10 9 0 0
BITMAP
3300
4440
4400
FFC0
4440
4440
4440
4440
4440
ENDCHAR
STARTCHAR FB04
ENCODING 64260
SWIDTH 990 0
DWIDTH 11 0
BBX 10 9 0 0
BITMAP
33C0
4440
4440
FF40
4440
4440
4440
4440
4440
ENDCHAR
STARTCHAR FB13
ENCODING 64275
SWIDTH 1260 0
DWIDTH 14 0
BBX 12 9 1 0
BITMAP
0F00
0900
0900
8910
8910
8910
8910
8910
78F0
ENDCHAR
STARTCHAR FB14
ENCODING 64276
SWIDTH 1260 0
DWIDTH 14 0
BBX 12 9 1 0
BITMAP
0F00
0900
0900
89F0
8900
8910
8910
8910
78F0
ENDCHAR
STARTCHAR FB15
ENCODING 64277
SWIDTH 1260 0
DWIDTH 14 0
BBX 12 11 1 -2
BITMAP
0F00
0900
0900
89E0
8910
8910
8910
8910
7910
0100
0100
ENDCHAR
STARTCHAR FB16
ENCODING 64278
SWIDTH 1260 0
DWIDTH 14 0
BBX 12 11 1 -2
BITMAP
0F00
0900
0900
8910
8910
8910
8910
8910
78F0
0800
0C00
ENDCHAR
STARTCHAR FB17
ENCODING 64279
SWIDTH 1620 0
DWIDTH 18 0
BBX 16 11 1 -2
BITMAP
0F00
0900
0900
89E1
8911
8911
8911
8913
791D
0100
0100
ENDCHAR
STARTCHAR FFE5
ENCODING 65509
SWIDTH 630 0
DWIDTH 7 0
BBX 5 8 1 0
BITMAP
88
88
50
50
20
F8
20
F8
ENDCHAR
STARTCHAR FFE6
ENCODING 65510
SWIDTH 990 0
DWIDTH 11 0
BBX 10 8 0 0
BITMAP
4440
4C40
FFC0
4A80
2A80
FFC0
3180
3100
ENDCHAR
STARTCHAR FFFD
ENCODING 65533
SWIDTH 900 0
DWIDTH 10 0
BBX 9 11 1 -3
BITMAP
0800
1800
2400
7A00
FB00
F780
FF00
7E00
3C00
1800
0800
ENDCHAR
ENDFONT
